<svg xmlns="http://www.w3.org/2000/svg" width="500" zoomAndPan="magnify" viewBox="0 0 375 375" height="500" preserveAspectRatio="xMidYMid meet" xmlns:v="https://vecta.io/nano"><style><![CDATA[.B{fill:rgb(62.748718%, 17.248535%, 3.529358%)}.C{clip-rule:nonzero}]]></style><defs><clipPath id="A"><path d="M368 153h6.652v30H368zm0 0" class="C"/></clipPath><clipPath id="B"><path d="M370 196h4.652v24H370zm0 0" class="C"/></clipPath><clipPath id="C"><path d="M322 323h11v10.75h-11zm0 0" class="C"/></clipPath><clipPath id="D"><path d="M4.152 194H5v14h-.848zm0 0" class="C"/></clipPath></defs><g fill="rgb(100%, 100%, 100%)"><path d="M-37.5-37.5h450v450h-450z"/><path d="M-37.5-37.5h450v450h-450z"/></g><path fill="rgb(99.21875%, 94.119263%, 89.019775%)" d="M-37.5-37.5h450v450h-450z"/><g class="B"><path d="M34.5 147.574c-.074-.383-1.098 1.711-1.754 4.102-.523 2.473-.754 4.406-.379 3.762.195-.344.621-1.848.941-2.824.555-2.402 1.355-4.625 1.191-5.039zm-4.676 18.902c-.055.074-.273.91-.426 1.414.008.328-.016.98.035.891.055-.082.152-.926.332-1.422.027-.324.117-.961.059-.883zm330.754 80.508l-1.293 3.352c.984-3.781 2.063-8.012 3.191-13.828 1.313-5.504 2.535-10.879 2.77-16.234 1.914-16.492 1.34-34.176-1.762-51.445-2.059-13.668-6.68-26.191-11.707-37.5-2.363-4.559-4.922-9.293-7.301-14.434-3.75-6.098-6.996-12.277-11.508-17.766-2.672-3.312-5.191-6.832-8.004-10.125l-8.863-9.523c-15.008-15.156-32.93-27.379-52.555-35.816-3.359-1.711-6.902-2.969-10.488-4.113l-10.684-3.617c-7.363-1.445-14.547-3.922-22.07-4.473-25.059-3.484-50.855-1.414-75.035 6.254-19.602 6.234-38 16.438-53.957 29.441-1.969 1.344-3.633 3.129-5.387 4.656-12.355 10.05-22.015 22.941-30.546 36.054-11.992 19.539-20.117 41.387-23.727 64.086-.543 5.082-1.547 10.156-1.684 15.297-.027 5.148-.344 10.301-.18 15.434.633 16.211 3.824 32.203 8.738 47.617 5.211 15.352 12.836 29.754 21.91 43.105l2.883 3.742 6.027 8.031 6.805 7.371c4.301 5.148 9.734 9.137 14.621 13.68 1.441 1.41 3.23 2.754 4.738 3.996 1.293 1.047 1.023.98-.469-.078-3.984-2.512-7.191-5.996-10.828-8.957-3.672-2.941-6.891-6.359-10.066-9.828-2.645-2.906-5.613-5.754-7.82-8.855-7.531-8.848-13.617-18.559-18.09-24.242-1.23-1.797-3.203-5.531-5.023-9.406-.551-1.18-.965-2.297-1.309-3.219-.113-.312.082-.18.309.168l1.773 2.895 1.73 2.801c.211.316.285.238.219-.035a9.84 9.84 0 0 0-.594-1.543c-2.281-4.145-3.996-8.551-5.641-12.922-1.523-3.918-2.875-6.586-3.691-7.941-.418-.758-.805-1.344-1.312-2.496-.723-1.641-1.609-4.437-2.504-7.73l-1.168-4.578-2.191-14.016c-.852-4.566-.934-9.133-1.625-13.578-.609-3.609-.637-7.578-.359-11.672.145-3.641.016-6.086-.223-7.859-.129-1.234-.434-2.273-.379-3.672-.004-1.402-.074-2.891.125-4.84l.992-11.82 1.465-9.937a70.38 70.38 0 0 1 1.422-6.797c.871-2.473 1.797-4.875 2.41-6.195l2.457-4.953c1.383-3.254 3.141-7.473 4.313-10.957.406-1.344.523-2.148 1.039-3.676.496-1.484 1.23-3.625 2.039-5.402 3.617-6.723 6.598-12.539 10.227-18.527.363-.531 1.148-1.535 1.375-1.766.566-.566 1.324-1.344 1.285-1.078-.066.453-.738 1.711-1.027 2.469-1.473 3.113-3.02 7.973-9 18.098-1.898 4.141-3.402 8.262-5.062 12.32-.824 2.023-1.16 3.664-.547 2.535.594-1.078 1.344-2.437 1.875-3.629l4.164-9.344c1.473-3.066 3.332-5.93 4.973-8.91 3.141-6.07 7.203-11.539 11.203-17.07 2.402-3.711 5.512-6.867 8.406-10.203 2.902-3.328 5.781-6.691 9.148-9.566l7.004-6.539c7.777-6.859 16.074-12.789 25.188-17.773 4.621-2.941 10.07-4.914 14.973-7.539 17.559-8 36.469-12.805 55.641-14.719 5.98-.484 11.988-1.117 18.027-.719l9.055.207c3.004.234 5.992.719 8.988 1.059 8.449.648 16.602 3.016 24.863 4.789 7.949 2.84 16.211 4.934 23.762 8.809 4.352 2.063 9.039 3.828 12.953 6.262 9.934 5.145 19.293 11.609 27.742 18.945 16.379 14.203 30.395 31.355 40.449 50.645 2.039 4.344 4.34 8.59 6.309 13l5.23 13.535c2.781 9.254 5.34 18.617 6.664 28.223.684 3.164.996 6.645 1.203 9.543.797 6.707 1.367 13.469.918 20.266.105 6.813-.937 13.559-1.926 20.313l-.621 4.781c-1.738 7.711-2.965 13.855-5.375 19.688m-336.89 16.583c-1.215-3.242-2.613-6.457-3.711-9.75l-2.746-9.961c-2.203-7.145-2.922-14.57-4.312-21.84-.918-7.336-1.41-14.75-1.68-22.145-.336-19.41 2.789-38.437 7.77-56.727 2.336-6.711 3.965-13.395 7.234-19.109 3.359-6.687 6.414-13.805 10.473-20.504l3.668-6.641c1.652-2.973 3.941-5.605 4.055-5.91l4.941-6.523c.922-1.285 2.035-2.918 2.539-3.781 3.695-4.961.504-3.734-4.625 3.207-3.031 4.152-6.523 8.129-9.051 12.797-2.863 5.371-6.168 10.52-8.828 16.043-2.465 5.613-5.246 11.145-7.539 16.93-6.641 17.328-10.535 35.668-12.156 54.156l-.176 18.168 1.566 16.535c.742 5.547 1.895 11.117 2.828 16.801 2.375 10.23 5.145 20.395 9.23 30.027.961 2.473 1.754 3.953 2.059 4.059.363.125-.5-3.145-1.539-5.832"/><path d="M69.621 70.961c4.598-3.973 8.574-7.555 12.094-10.926 3.77-3.078 7.152-5.859 10.184-8.691a74.38 74.38 0 0 1 6.863-5.996c3.852-3.129 2.723-3.129-3.473.039-3.387 1.777-6.723 4.258-11.113 7.426l-4.008 3.094c-2.875 2.621-5.59 5.496-8.527 8.293-2.961 2.773-5.937 5.691-8.719 9.074-2.488 2.824-4.777 6.086-4.504 6.27.313.207.809.207 1.363.141 1.121-.117 4.199-2.98 9.84-8.723M176.234 5.398l2.711-.215c11.762-1.328 23.582-1.18 35.395-.187 6.188.926 12.668 1.344 18.875 2.574l8.105 1.645-5.426-1.426c-32.672-7.648-67.816-4.566-99.805 5.578l-15.285 5.785-14.719 7.281-2.367 1.219c-2.383 1.484-4.988 3.48-3.66 2.793 1.156-.598 2.621-1.336 3.875-2.105 22.246-12.324 46.918-20.418 72.301-22.941m159.735 293.464c2.805-3.801 5.348-6.746 7.051-10.344 1.301-2.441 2.586-5.363 1.883-4.582a23.87 23.87 0 0 0-2.516 3.367c-3.191 5.664-7.711 10.457-11.465 15.766-4.211 4.961-8.738 9.695-13.27 14.398-2.078 1.836-4.379 4.172-6.52 6.262-1.445 1.41-1.746 2.219-.414 1.156l7.43-5.984c6.195-6.133 12.879-12.734 17.82-20.039"/></g><g clip-path="url(#A)" class="B"><path d="M372.277 175.199c.906 5.023 1.375 7.41 2.203 7.547 0 0 .215-2.379.125-5.27-.348-4.738-1.32-9.625-2.215-14.492-.824-5.133-2.457-8.324-3.055-9.141-.809-.895-1.117.004.016 5.371a152.74 152.74 0 0 0 2.926 15.984"/></g><path d="M129.898 21.98c-.262.035-1.105.266-1.73.5-3.238 1.16-6.473 2.391-9.523 4.012l.008.039-9.371 4.637c-12.035 6.766-14 8.828-11.937 8.781.395.016.824.012 1.75-.32.512-.187 2.031-1.031 3.234-1.699.406-.223 1.609-1.012 1.813-1.187 2.031-1.922 5.074-3.883 8.836-5.988 3.789-2.02 8-4.84 13.098-6.812 1.418-.586 2.598-1.156 3.641-1.664.43-.211.449-.332.184-.297" class="B"/><g clip-path="url(#B)" class="B"><path d="M371.449 204.547c-.145 3.652-.441 7.496-1.141 11.316-.133.914-.129 2.258-.184 3.41.164-.187.305.184.496-.648 1.25-5.488 2.355-8.32 3.031-8.398.137-.012.301-1.07.449-1.637.25-.949.512-6.094.387-8.449-.09-1.715-.25-3.848-.422-3.754-.594.316-1.203 1.438-1.809 2.434-.324.535-.617 2.664-.809 5.727"/></g><path d="M70.07 60.828c4.703-4.391 8.348-8.27 8.746-9.113-.75.465-1.617.676-3.047 1.828-3.391 2.75-7.988 7.105-10.504 9.871-1.934 2.121-2.156 2.891.09 1.313.992-.699 3.172-2.477 4.715-3.898m261.516 256.237c-.426.43-1.633 1.992-2.48 3.031.105.105-.105.582.355.254 2.152-1.684 6.309-5.25 10.832-11.211.777-1.07 1.855-2.754 2.027-3.168.16-.383-.496.191-1.156.973-2.75 3.539-6.16 6.742-9.578 10.121" class="B"/><g clip-path="url(#C)" class="B"><path d="M326.691 328.543c-2.461 2.375-4.57 4.734-4.316 4.832.285.27 2.223-1.09 4.273-2.574.375-.273 1.238-.965 1.523-1.25 1-.937 2.313-2.34 2.473-2.734.688-1.297 1.152-2.355 1.406-3.18.117-.672-2.906 2.785-5.359 4.906"/></g><path d="M72.516 77.945c-.238.441-.078.527.445.09.52-.453 1.719-1.762 2.766-2.551 3.238-3.012 5.297-5.195 5.668-6.07.109-.266-.449.012-1.191.578-.73.563-2.168 1.828-3.137 2.75-2.387 2.188-4.023 4.063-4.551 5.203m48.742-47.218l-1.707.699-2.129 1.039c-6.195 3.297-7.844 4.879-3.215 3.113.797-.309 3.141-1.418 4.027-1.91 4.313-2.41 5.551-3.66 3.023-2.941M14.055 138.395c.18-.613.262-1.16.195-1.145s-.395.801-.625 1.293c-2.625 6.516-3.953 13.52-5.246 20.176-.109.598-.113 1.074-.043 1.027.074-.039.313-.68.473-1.309 1.789-6.793 3.133-13.664 5.246-20.043m28.777-56.437c1.387-1.945 1.832-2.754 1.156-2.02-.277.301-1.016 1.27-1.484 1.922-2.574 3.711-5.391 7.262-7.727 11.117l-6.723 11.738c-.27.477-.391.891-.578 1.332.305-.418.68-.848.906-1.242l6.734-11.738c2.355-3.844 5.148-7.402 7.715-11.109m328.357 69.102c.508.832.277-1.117-.535-4.547-.672-3.324-2.027-6.797-2.633-7.359-.586-.578.008 1.273.785 4.41.738 3.113 1.855 6.629 2.383 7.496m-18.008 123.89c-.133-.191-.508.094-1.043.824-.258.379-1.113 2.223-1.891 3.297-1.305 2.391-2.039 4.109-1.949 4.641.059.355.734-.434 2.063-2.523 1.777-2.543 3.035-5.945 2.82-6.238M179.793 19.531c-.281-.027-1.664.043-2.254.109-4.578.652-6.785 1.785-4.473 1.715.461.043 3-.488 4.098-.512 3.313-.371 4.211-.723 4.434-1.043-.566-.098-.992-.207-1.805-.27m-59.742 18.329c1.563-1.055 1.727-1.43.199-.984-.324.098-1.07.371-1.504.594l-3.461 1.82c-1.145.746-1.668 1.234-2.352 1.754.633-.137.91-.113 1.695-.379 1.07-.363 4.285-2.039 5.422-2.805m210.739 270.864c.277-.496.16-.637-.266-.352-.379.25-1.496 1.27-2.164 2.016-.734.828-1.324 1.734-1.984 2.613.086.125-.094.57.344.277.379-.254 1.488-1.266 2.195-2.055.711-.797 1.625-2.047 1.875-2.5M81.93 42.402c1.055-.879.973-.891-.641.301-4.812 3.488-9.41 6.984-13.055 10.969-1.293 1.316-1.219 1.297.359-.078 4.48-4.199 8.965-7.465 13.336-11.191M288.93 27.941c2.285 1.352 4.773 2.516 3.996 1.863-.473-.395-2.129-1.5-3.117-2.059-1.961-1.133-3.828-2.098-5.859-2.852.484.348.543.477 1.047.738 1.273.586 2.57 1.527 3.934 2.309" class="B"/><g clip-path="url(#D)" class="B"><path d="M4.73 199.512l-.066-4.578c-.078-2.148-.258.238-.379 5.465-.113 1.77.16 3.543.258 5.285l.254 2.172.047-3.156-.113-5.187"/></g><g class="B"><path d="M157.578 18.926c-1.098.344-2.23.801-2.344.941-.234.363 2.266-.359 4.523-.758 1.125-.238 1.715-.488 2.547-.734-.133-.18-2.512-.023-4.727.551m203.318 244.148c.434-1.285.023-.754-.82.953l-.934 2.102c-.297.91-.473 1.609-.574 2.148-.023.102.535-.949.824-1.473l1.504-3.73m-3.926-3.465l.688-2.012c1.004-3.367 1.031-4.391 1.156-5.648l-2.461 8.387c-.09.504.34-.258.617-.727"/><path d="M358.813 251.949l.367-1.234.105-.379-.301.785-.172.828M156.402 25.867c-.348.063-1.406.34-1.875.492-1.562.508-1.773.695-.551.484l1.848-.477c1.566-.523 1.828-.715.578-.5m-25.937 11.029l1.977-1.051-1.715.535-1.906 1.031 1.645-.516m232.507 101.133c-.746-1.645-.781-1.387-.086.641l.816 1.941c.016-.152.141-.078.016-.508a23.16 23.16 0 0 0-.746-2.074M174.004 25.203l.156-.168-1.359.301zM66.527 78.879l-.77.715-.195.426zm196.2-45.238l-.187-.262c-.359-.145-.754-.199-1.133-.305.445.168.898.332 1.32.566m54.48 22.489l-1.277-1.102.918.938zm0 0"/><path d="M199.114 287.351c0 3.637.18 7.27 1.09 10.723.547 2 1.637 3.09 4 3.273 11.449.727 12.359-.184 12.723-11.816.91-20.719 2-41.441 3.816-61.98.363-3.637.363-3.82 4-3.82l25.266.184c4.363 0 4.543 0 4.18 4.543-.543 10.906-1.27 21.996-.727 32.902.727 12.176 2.184 24.176 6 35.809 2 5.633 4.543 10.906 8.18 15.449 3.27 3.637 7.09 6.543 12.176 6.906 6.547.547 11.816-1.453 15.996-6.543 3.457-4.18 6.547-8.723 8.91-13.633 5.996-12.18 10.539-24.902 15.086-37.809.363-1.27 1.27-2.543-.363-3.453-3.453-2.18-6.18-1.453-7.816 2.184l-1.637 3.816c-4.543 10.906-8.543 21.992-13.449 32.719-2.547 5.27-5.453 10.359-9.453 14.539-3.453 3.453-4.547 3.453-7.273-.363-1.09-1.453-1.996-3.27-2.727-4.906-2.359-5.09-3.816-10.363-4.906-15.633-3.637-20.539-2.727-41.078-.18-61.437.727-7.09.727-6.727 7.086-7.637 2.363-.18 4.547-1.09 6.91-1.816 1.453-.547 3.09-1.273 2.727-3.273-.547-2.18-2.547-1.996-4.184-1.816-1.09 0-2 .363-3.09.547-1.453.363-3.09.727-4.543.906-2 .547-2.91-.18-2.727-2.359.547-2.727.91-5.637 1.637-8.547 3.09-14.359 4.906-29.082 9.086-43.258.91-2.727.547-3.094-2.543-3.273-4 0-8 .363-11.816.18-2.906 0-4.363 1.273-5.27 3.82-1.453 4.18-2.91 8.359-3.816 12.723-2.547 12.906-4.91 25.629-6 38.719-.18 1.996-.547 3.633-3.09 3.633-9.27.184-18.539.184-27.812-.906-2.363-.184-2.906-1.457-2.906-3.637.18-6.906.18-13.816.18-20.723 0-7.453-.363-15.086-1.453-22.539s-1.273-7.453-8.906-7.816c-7.633-.18-7.633-.18-8.543 7.27-1.637 12.543-2 24.902-2.18 37.445 0 1.82-.184 3.453-.184 5.273 0 2.727-.91 4.18-4 4.543-4.906.727-9.633 2.543-13.812 5.453-2.184 1.637-4.363 3.273-5.637 5.816-1.09 1.637-2 3.453-.363 5.09 1.09 1.453 5.09 1.273 6.727-.184.547-.543.91-1.27 1.453-1.996 2.91-3.273 6.543-5.453 10.727-6.727 3.996-1.273 4.359-1.09 4.18 3.27-.184 10.363-1.273 20.543-.91 30.902l.184 29.266zm-27.97-123.762c5.574-.371 10.773-2.043 15.973-3.344 1.672-.371 2.227-1.484 2.043-3.156-.371-1.672-1.113-2.414-2.973-2.227-.742.184-1.672.184-2.598.371-9.473 2.227-19.316 2.785-29.156 3.34-4.645.371-4.828.188-6.316-4.082l-10.586-29.156c-2.043-5.203-3.711-10.586-4.641-16.16-1.484-8.355-1.113-16.711 1.855-24.695.93-2.602 2.043-5.203 5.016-5.574 3.156-.371 4.828 2.043 6.313 4.273 2.602 4.086 4.645 8.543 5.945 13.184 1.113 4.273 2.227 8.543 2.969 12.813.559 2.418 1.672 3.344 4.086 2.973l7.801-1.113c3.715-.559 3.898-.742 4.27-4.457.559-7.613-.926-14.672-4.086-21.543-5.199-11.512-18.383-18.199-30.824-15.598-12.074 2.414-19.5 10.398-23.031 21.914-2.785 9.285-2.227 18.754-.555 28.039 2.227 12.816 6.684 25.07 10.586 37.328 1.484 4.457 1.484 4.457-3.156 5.387-6.316 1.113-12.629 2.785-18.574 5.57-10.027 4.641-16.527 12.258-18.57 23.215-2.785 14.668 5.945 30.453 19.5 34.355 14.301 3.898 28.227 2.227 41.043-5.199 9.469-5.574 14.297-14.117 14.113-25.258-.187-7.613-1.859-15.043-3.715-22.285-.742-2.227-1.855-4.457-1.672-7.613 6.5-.559 12.813-.93 18.941-1.301zm-47.91 54.969c-8.543 2.973-16.715.742-21.914-6.312-5.941-8.172-7.43-17.273-4.273-26.93 1.672-5.012 4.645-8.914 9.285-11.699 5.203-3.34 11.145-4.641 17.273-5.941 1.855-.371 3.344.184 3.898 2.227 2.973 10.402 5.941 20.613 6.5 29.715.188 10.77-3.344 16.344-10.77 18.941zm0 0"/></g></svg>