<svg xmlns="http://www.w3.org/2000/svg" width="500" zoomAndPan="magnify" viewBox="0 0 375 375" height="500" preserveAspectRatio="xMidYMid meet" xmlns:v="https://vecta.io/nano"><style><![CDATA[.B{fill:rgb(0%, 0%, 0%)}.C{clip-rule:nonzero}]]></style><defs><clipPath id="A"><path d="M359 149h6.652v30H359zm0 0" class="C"/></clipPath><clipPath id="B"><path d="M361 191h4.652v23H361zm0 0" class="C"/></clipPath><clipPath id="C"><path d="M314 315h11v10.5h-11zm0 0" class="C"/></clipPath><clipPath id="D"><path d="M4.152 189H5v14h-.848zm0 0" class="C"/></clipPath></defs><path fill="rgb(100%, 100%, 100%)" d="M187.5 0C83.945 0 0 83.945 0 187.5S83.945 375 187.5 375 375 291.055 375 187.5 291.055 0 187.5 0"/><g class="B"><path d="M33.762 143.926c-.074-.375-1.07 1.668-1.711 4-.512 2.41-.734 4.297-.371 3.668.195-.336.605-1.801.922-2.754.539-2.344 1.32-4.508 1.16-4.914zM29.2 162.364c-.055.07-.266.883-.414 1.375.008.32-.016.961.031.871.055-.082.152-.906.328-1.387.023-.316.113-.937.055-.859zm322.719 78.516l-1.258 3.27c.957-3.687 2.008-7.812 3.113-13.488 1.281-5.363 2.473-10.609 2.699-15.832 1.871-16.086 1.309-33.328-1.715-50.176-2.008-13.328-6.52-25.543-11.422-36.57-2.309-4.449-4.805-9.062-7.125-14.078-3.66-5.949-6.828-11.973-11.23-17.328-2.605-3.227-5.062-6.664-7.809-9.871l-8.648-9.289a162.68 162.68 0 0 0-51.277-34.93c-3.277-1.672-6.734-2.898-10.23-4.012l-10.426-3.531c-7.184-1.41-14.195-3.824-21.535-4.363-24.449-3.395-49.621-1.379-73.215 6.102-19.125 6.082-37.074 16.031-52.645 28.715-1.922 1.309-3.543 3.051-5.254 4.539-12.059 9.805-21.484 22.375-29.809 35.168-11.699 19.051-19.625 40.363-23.148 62.5-.527 4.957-1.512 9.902-1.641 14.922-.027 5.02-.34 10.043-.176 15.051.617 15.809 3.73 31.406 8.523 46.441 5.082 14.969 12.523 29.02 21.379 42.039l2.813 3.648 5.879 7.832 6.641 7.188c4.199 5.023 9.496 8.914 14.27 13.344 1.406 1.375 3.148 2.688 4.621 3.898 1.262 1.02 1 .957-.461-.074-3.887-2.453-7.016-5.852-10.562-8.738-3.582-2.871-6.723-6.203-9.82-9.586-2.578-2.836-5.477-5.613-7.633-8.637-7.348-8.629-13.281-18.102-17.652-23.641-1.195-1.754-3.125-5.398-4.898-9.176-.539-1.148-.941-2.238-1.277-3.141-.109-.305.082-.176.301.164l1.73 2.824 1.688 2.73c.207.309.281.234.215-.031a10.19 10.19 0 0 0-.578-1.508c-2.223-4.039-3.898-8.34-5.504-12.602-1.484-3.82-2.805-6.422-3.602-7.746-.41-.738-.789-1.312-1.281-2.434-.703-1.602-1.57-4.328-2.445-7.539l-1.137-4.465-2.141-13.668c-.828-4.457-.91-8.91-1.582-13.242-.598-3.523-.621-7.395-.352-11.387.141-3.551.012-5.937-.219-7.664-.125-1.203-.422-2.219-.367-3.582-.004-1.367-.074-2.82.117-4.719l.973-11.527 1.43-9.695a66.69 66.69 0 0 1 1.387-6.629c.848-2.41 1.75-4.754 2.352-6.043l2.395-4.832c1.352-3.168 3.066-7.285 4.207-10.684.398-1.309.512-2.094 1.016-3.582.484-1.453 1.203-3.539 1.992-5.27 3.527-6.559 6.434-12.23 9.977-18.074.355-.516 1.121-1.496 1.34-1.719.555-.555 1.293-1.309 1.254-1.051-.066.441-.719 1.668-1.004 2.406-1.434 3.039-2.945 7.777-8.777 17.652-1.855 4.039-3.32 8.059-4.941 12.016-.805 1.973-1.133 3.574-.531 2.473.574-1.055 1.309-2.379 1.828-3.539l4.063-9.113c1.438-2.992 3.254-5.785 4.852-8.691 3.063-5.918 7.027-11.254 10.934-16.648 2.34-3.617 5.375-6.699 8.199-9.949 2.832-3.25 5.641-6.527 8.93-9.332L84.531 66c7.59-6.691 15.688-12.477 24.578-17.336 4.508-2.867 9.824-4.793 14.609-7.355 17.133-7.801 35.586-12.488 54.289-14.352 5.836-.477 11.695-1.09 17.59-.699l8.832.199c2.934.227 5.848.699 8.77 1.031 8.246.633 16.199 2.941 24.262 4.668 7.758 2.77 15.82 4.813 23.184 8.594 4.25 2.012 8.82 3.734 12.641 6.105 9.688 5.02 18.82 11.324 27.066 18.48 15.98 13.852 29.656 30.578 39.469 49.395 1.988 4.234 4.234 8.375 6.156 12.676l5.102 13.199c2.711 9.027 5.207 18.16 6.504 27.527.664 3.086.969 6.48 1.172 9.309.777 6.543 1.336 13.137.895 19.766.102 6.641-.914 13.219-1.879 19.813l-.605 4.66c-1.695 7.52-2.895 13.512-5.246 19.199M23.211 257.063c-1.184-3.164-2.547-6.297-3.621-9.512l-2.68-9.715c-2.148-6.965-2.848-14.211-4.203-21.301-.898-7.152-1.379-14.383-1.641-21.594-.328-18.934 2.719-37.488 7.578-55.328 2.281-6.547 3.871-13.062 7.059-18.637 3.277-6.523 6.262-13.461 10.223-19.996l3.578-6.477c1.609-2.898 3.844-5.469 3.957-5.766l4.816-6.363c.902-1.254 1.988-2.848 2.48-3.687 3.605-4.84.492-3.645-4.512 3.125-2.957 4.055-6.363 7.93-8.832 12.484-2.793 5.238-6.02 10.262-8.613 15.645-2.406 5.477-5.117 10.871-7.359 16.512-6.477 16.902-10.277 34.789-11.859 52.82l-.168 17.719 1.527 16.125c.723 5.414 1.848 10.848 2.758 16.387 2.316 9.98 5.02 19.891 9.008 29.285.938 2.414 1.711 3.855 2.008 3.961.355.121-.488-3.066-1.504-5.687"/><path d="M68.031 69.203c4.484-3.871 8.363-7.367 11.801-10.652 3.676-3.004 6.98-5.715 9.934-8.477a72.67 72.67 0 0 1 6.695-5.848c3.762-3.055 2.656-3.051-3.387.039-3.305 1.73-6.559 4.152-10.84 7.238l-3.91 3.02c-2.809 2.555-5.457 5.359-8.324 8.086-2.887 2.707-5.793 5.551-8.504 8.852-2.43 2.754-4.664 5.934-4.395 6.113.301.203.789.203 1.328.137 1.094-.109 4.098-2.902 9.602-8.508M172.055 5.262l2.645-.211c11.477-1.293 23.008-1.148 34.535-.18 6.039.902 12.359 1.309 18.414 2.512l7.91 1.602-5.293-1.391c-31.879-7.461-66.172-4.453-97.379 5.441l-14.918 5.645-14.359 7.098-2.309 1.191c-2.324 1.449-4.867 3.395-3.574 2.723 1.133-.582 2.559-1.305 3.781-2.055 21.707-12.02 45.781-19.914 70.547-22.375M327.91 291.477c2.734-3.707 5.215-6.578 6.875-10.086 1.273-2.383 2.527-5.23 1.84-4.469a23.33 23.33 0 0 0-2.457 3.281c-3.113 5.527-7.52 10.203-11.184 15.375-4.109 4.84-8.523 9.457-12.949 14.043-2.027 1.793-4.273 4.07-6.359 6.109-1.41 1.375-1.703 2.164-.402 1.125l7.246-5.832c6.047-5.984 12.57-12.422 17.391-19.547"/></g><g clip-path="url(#A)" class="B"><path d="M363.332 170.871c.887 4.898 1.344 7.227 2.152 7.355 0 0 .211-2.316.121-5.137-.34-4.625-1.289-9.387-2.16-14.137-.805-5.004-2.395-8.117-2.98-8.914-.789-.871-1.09.008.016 5.242.676 5.336 1.719 10.832 2.852 15.59"/></g><path d="M126.844 21.438c-.254.031-1.078.258-1.687.484-3.16 1.133-6.316 2.332-9.293 3.914l.008.039-9.145 4.52c-11.742 6.598-13.66 8.613-11.648 8.566.387.012.809.012 1.711-.316.496-.18 1.98-1.004 3.156-1.652.395-.219 1.57-.988 1.766-1.16 1.984-1.875 4.953-3.785 8.625-5.84 3.695-1.973 7.801-4.719 12.777-6.645 1.383-.574 2.535-1.129 3.551-1.625.418-.203.441-.32.18-.285" class="B"/><g clip-path="url(#B)" class="B"><path d="M362.523 199.492c-.137 3.563-.43 7.309-1.109 11.035-.129.895-.125 2.203-.18 3.324.16-.18.297.184.484-.629 1.219-5.355 2.297-8.113 2.957-8.191.133-.012.293-1.047.438-1.598.246-.926.5-5.945.379-8.238-.086-1.672-.242-3.754-.414-3.664-.574.313-1.172 1.402-1.762 2.375-.316.52-.605 2.598-.793 5.586"/></g><path d="M68.469 59.324c4.59-4.281 8.145-8.066 8.535-8.891-.734.453-1.578.66-2.973 1.785-3.309 2.684-7.793 6.93-10.25 9.625-1.887 2.07-2.105 2.82.09 1.281.965-.68 3.094-2.414 4.598-3.801M323.633 309.23c-.414.418-1.594 1.941-2.418 2.957.098.105-.105.566.344.246 2.102-1.641 6.156-5.121 10.57-10.934.758-1.043 1.809-2.684 1.977-3.09.156-.371-.484.188-1.129.949-2.684 3.453-6.012 6.574-9.344 9.871" class="B"/><g clip-path="url(#C)" class="B"><path d="M318.855 320.422c-2.402 2.32-4.457 4.621-4.207 4.715.277.262 2.164-1.066 4.168-2.512.363-.266 1.207-.937 1.484-1.219.977-.914 2.258-2.281 2.414-2.668.668-1.262 1.125-2.293 1.371-3.102.113-.656-2.836 2.719-5.23 4.785"/></g><path d="M70.852 76.02c-.23.43-.07.516.438.086.508-.441 1.676-1.719 2.699-2.488 3.16-2.937 5.168-5.066 5.531-5.922.105-.258-.441.012-1.164.566-.711.547-2.117 1.785-3.059 2.68-2.332 2.133-3.93 3.961-4.445 5.078m47.562-46.055l-1.668.68-2.078 1.016c-6.043 3.215-7.652 4.758-3.137 3.035.781-.297 3.066-1.379 3.934-1.863 4.207-2.352 5.414-3.57 2.949-2.867M13.816 134.973c.172-.598.254-1.133.188-1.113-.066.012-.383.777-.609 1.258-2.562 6.355-3.855 13.184-5.117 19.68-.105.578-.113 1.047-.043 1 .07-.039.305-.664.461-1.277 1.746-6.625 3.055-13.324 5.121-19.547M41.891 79.93c1.355-1.898 1.789-2.684 1.129-1.969-.27.293-.992 1.238-1.449 1.871-2.508 3.621-5.258 7.082-7.539 10.844l-6.559 11.449c-.262.465-.379.871-.562 1.297.297-.402.664-.824.883-1.211l6.574-11.449c2.297-3.746 5.023-7.215 7.523-10.832m320.382 67.394c.492.813.27-1.086-.523-4.434-.656-3.242-1.977-6.629-2.57-7.18-.57-.562.008 1.242.766 4.301.723 3.035 1.813 6.465 2.328 7.313m-17.571 120.828c-.133-.187-.5.094-1.02.809-.25.367-1.086 2.164-1.848 3.215-1.27 2.332-1.988 4.004-1.898 4.523.059.344.715-.422 2.012-2.461 1.734-2.48 2.965-5.797 2.754-6.086M175.527 19.043c-.277-.023-1.625.047-2.199.109-4.469.637-6.621 1.742-4.363 1.676.445.039 2.926-.48 3.996-.504 3.234-.359 4.109-.703 4.328-1.016-.555-.094-.973-.203-1.762-.266m-58.293 17.88c1.527-1.031 1.684-1.395.195-.961-.312.094-1.043.363-1.469.578l-3.375 1.777c-1.117.727-1.629 1.203-2.297 1.711.621-.133.891-.109 1.656-.371 1.047-.355 4.18-1.988 5.289-2.734m205.622 264.172c.27-.484.156-.621-.258-.344-.371.246-1.465 1.238-2.113 1.965-.719.809-1.293 1.695-1.937 2.551.086.121-.09.555.336.27.371-.246 1.453-1.234 2.145-2.004s1.582-1.996 1.828-2.437M80.039 41.355c1.031-.859.949-.871-.625.289-4.695 3.402-9.18 6.813-12.734 10.699-1.262 1.281-1.187 1.266.348-.078 4.371-4.094 8.746-7.277 13.012-10.91M282.012 27.25c2.23 1.32 4.66 2.453 3.898 1.816-.461-.383-2.078-1.461-3.043-2.008-1.91-1.105-3.734-2.043-5.711-2.785.469.344.523.469 1.016.723 1.242.574 2.508 1.492 3.84 2.254" class="B"/><g clip-path="url(#D)" class="B"><path d="M4.719 194.578l-.066-4.465c-.078-2.094-.254.234-.371 5.332-.109 1.727.156 3.457.254 5.156l.246 2.117.043-3.078-.105-5.062"/></g><g class="B"><path d="M153.852 18.457c-1.07.336-2.176.777-2.289.918-.227.352 2.215-.352 4.414-.742 1.102-.23 1.676-.473 2.484-.715-.129-.176-2.449-.023-4.609.539M352.23 256.574c.422-1.254.023-.738-.801.926l-.914 2.055c-.289.883-.461 1.566-.559 2.094-.02.098.52-.926.805-1.437l1.469-3.637m-3.832-3.38l.672-1.965c.98-3.285 1.004-4.281 1.125-5.508l-2.398 8.18c-.086.488.332-.25.602-.707"/><path d="M350.195 245.723l.359-1.203.105-.371-.297.766-.168.809M152.703 25.227c-.34.059-1.371.328-1.832.48-1.52.492-1.727.676-.535.473l1.805-.465c1.527-.512 1.781-.699.563-.488M127.395 35.98l1.93-1.023-1.672.52-1.859 1.008 1.602-.504m226.862 98.632c-.727-1.602-.762-1.352-.086.625l.797 1.895c.016-.148.137-.074.016-.492a23.23 23.23 0 0 0-.727-2.027M169.879 24.578l.152-.164-1.328.293zM65.012 76.93l-.75.695-.191.414zm191.433-44.125l-.18-.25c-.352-.145-.738-.195-1.109-.301l1.289.551m53.157 21.933l-1.242-1.07.891.914zm0 0"/><path d="M199.114 287.351c0 3.637.18 7.27 1.09 10.723.547 2 1.637 3.09 4 3.273 11.449.727 12.359-.184 12.723-11.816.91-20.719 2-41.441 3.816-61.98.363-3.637.363-3.82 4-3.82l25.266.184c4.363 0 4.543 0 4.18 4.543-.543 10.906-1.27 21.996-.727 32.902.727 12.176 2.184 24.176 6 35.809 2 5.633 4.543 10.906 8.18 15.449 3.27 3.637 7.09 6.543 12.176 6.906 6.547.547 11.816-1.453 15.996-6.543 3.457-4.18 6.547-8.723 8.91-13.633 5.996-12.18 10.539-24.902 15.086-37.809.363-1.27 1.27-2.543-.363-3.453-3.453-2.18-6.18-1.453-7.816 2.184l-1.637 3.816c-4.543 10.906-8.543 21.992-13.449 32.719-2.547 5.27-5.453 10.359-9.453 14.539-3.453 3.453-4.547 3.453-7.273-.363-1.09-1.453-1.996-3.27-2.727-4.906-2.359-5.09-3.816-10.363-4.906-15.633-3.637-20.539-2.727-41.078-.18-61.437.727-7.09.727-6.727 7.086-7.637 2.363-.18 4.547-1.09 6.91-1.816 1.453-.547 3.09-1.273 2.727-3.273-.547-2.18-2.547-1.996-4.184-1.816-1.09 0-2 .363-3.09.547-1.453.363-3.09.727-4.543.906-2 .547-2.91-.18-2.727-2.359.547-2.727.91-5.637 1.637-8.547 3.09-14.359 4.906-29.082 9.086-43.258.91-2.727.547-3.094-2.543-3.273-4 0-8 .363-11.816.18-2.906 0-4.363 1.273-5.27 3.82-1.453 4.18-2.91 8.359-3.816 12.723-2.547 12.906-4.91 25.629-6 38.719-.18 1.996-.547 3.633-3.09 3.633-9.27.184-18.539.184-27.812-.906-2.363-.184-2.906-1.457-2.906-3.637.18-6.906.18-13.816.18-20.723 0-7.453-.363-15.086-1.453-22.539s-1.273-7.453-8.906-7.816c-7.633-.18-7.633-.18-8.543 7.27-1.637 12.543-2 24.902-2.18 37.445 0 1.82-.184 3.453-.184 5.273 0 2.727-.91 4.18-4 4.543-4.906.727-9.633 2.543-13.812 5.453-2.184 1.637-4.363 3.273-5.637 5.816-1.09 1.637-2 3.453-.363 5.09 1.09 1.453 5.09 1.273 6.727-.184.547-.543.91-1.27 1.453-1.996 2.91-3.273 6.543-5.453 10.727-6.727 3.996-1.273 4.359-1.09 4.18 3.27-.184 10.363-1.273 20.543-.91 30.902l.184 29.266zm-35.526-128.234c5.574-.371 10.773-2.043 15.973-3.344 1.672-.371 2.227-1.484 2.043-3.156-.371-1.672-1.113-2.414-2.973-2.227-.742.184-1.672.184-2.598.371-9.473 2.227-19.316 2.785-29.156 3.34-4.645.371-4.828.188-6.316-4.082l-10.586-29.156c-2.043-5.203-3.711-10.586-4.641-16.16-1.484-8.355-1.113-16.711 1.855-24.695.93-2.602 2.043-5.203 5.016-5.574 3.156-.371 4.828 2.043 6.313 4.273 2.602 4.086 4.645 8.543 5.945 13.184 1.113 4.273 2.227 8.543 2.969 12.813.559 2.418 1.672 3.344 4.086 2.973l7.801-1.113c3.715-.559 3.898-.742 4.27-4.457.559-7.613-.926-14.672-4.086-21.543-5.199-11.512-18.383-18.199-30.824-15.598-12.074 2.414-19.5 10.398-23.031 21.914-2.785 9.285-2.227 18.754-.555 28.039 2.227 12.816 6.684 25.07 10.586 37.328 1.484 4.457 1.484 4.457-3.156 5.387-6.316 1.113-12.629 2.785-18.574 5.57-10.027 4.641-16.527 12.258-18.57 23.215-2.785 14.668 5.945 30.453 19.5 34.355 14.301 3.898 28.227 2.227 41.043-5.199 9.469-5.574 14.297-14.117 14.113-25.258-.187-7.613-1.859-15.043-3.715-22.285-.742-2.227-1.855-4.457-1.672-7.613 6.5-.559 12.813-.93 18.941-1.301zm-47.91 54.969c-8.543 2.973-16.715.742-21.914-6.312-5.941-8.172-7.43-17.273-4.273-26.93 1.672-5.012 4.645-8.914 9.285-11.699 5.203-3.34 11.145-4.641 17.273-5.941 1.855-.371 3.344.184 3.898 2.227 2.973 10.402 5.941 20.613 6.5 29.715.188 10.77-3.344 16.344-10.77 18.941zm0 0"/></g></svg>