<svg xmlns="http://www.w3.org/2000/svg" width="300" viewBox="0 0 300 75" height="75" version="1.0"><g fill="#808080"><g><g><path d="M 10.125 -3.3125 C 7.8125 -3.3125 5.8125 -4.46875 5.6875 -7 L 0.9375 -7 C 0.96875 -1.8125 5.25 0.5 9.9375 0.5 C 14.28125 0.5 18.75 -1.34375 18.75 -6.34375 C 18.75 -14.4375 6.46875 -11.71875 6.46875 -15.5 C 6.46875 -17.09375 8.3125 -17.71875 9.625 -17.71875 C 11.96875 -17.71875 13.25 -17 13.5 -14.78125 L 18.03125 -14.78125 C 17.875 -19.625 13.9375 -21.5625 9.5625 -21.5625 C 5.6875 -21.5625 1.625 -19.5 1.625 -15.125 C 1.625 -7.28125 13.90625 -9.9375 13.90625 -5.8125 C 13.90625 -3.90625 11.59375 -3.3125 10.125 -3.3125 Z M 10.125 -3.3125" transform="translate(83.081 30.895)"/></g></g></g><g fill="#808080"><g><g><path d="M 6.5625 0 L 6.5625 -21.25 L 1.875 -21.25 L 1.875 0 Z M 6.5625 0" transform="translate(109.019 30.895)"/></g></g></g><g fill="#808080"><g><g><path d="M 6.5 -4.3125 L 6.5 -16.90625 L 7.90625 -16.90625 C 11.53125 -16.90625 13.96875 -14.15625 13.96875 -10.625 C 13.96875 -7.09375 11.5 -4.3125 7.90625 -4.3125 Z M 1.875 -21.25 L 1.875 0 L 8.1875 0 C 14.21875 0 18.75 -4.625 18.75 -10.625 C 18.75 -16.625 14.1875 -21.25 8.1875 -21.25 Z M 1.875 -21.25" transform="translate(123.706 30.895)"/></g></g></g><g fill="#808080"><g><g><path d="M 18.5625 0 L 18.5625 -21.25 L 13.875 -21.25 L 13.875 -8 L 6.5625 -21.25 L 1.875 -21.25 L 1.875 0 L 6.5625 0 L 6.5625 -13.25 L 13.875 0 Z M 18.5625 0" transform="translate(149.8 30.895)"/></g></g></g><g fill="#808080"><g><g><path d="M 14.1875 -4.25 L 6.5625 -4.25 L 6.5625 -8.53125 L 13.875 -8.53125 L 13.875 -12.78125 L 6.5625 -12.78125 L 6.5625 -17 L 14.1875 -17 L 14.1875 -21.25 L 1.875 -21.25 L 1.875 0 L 14.1875 0 Z M 14.1875 -4.25" transform="translate(176.488 30.895)"/></g></g></g><g fill="#808080"><g><g><path d="M 8.09375 0 L 12.78125 0 L 12.78125 -10.15625 L 20.625 -21.25 L 15.03125 -21.25 L 10.4375 -13.90625 L 5.84375 -21.25 L 0.25 -21.25 L 8.09375 -10.15625 Z M 8.09375 0" transform="translate(198.8 30.895)"/></g></g></g><path transform="translate(30.382) scale(.34722)" fill="none" d="M 176.953446 75.465011 C 170.293445 75.465011 164.544695 72.123761 164.162195 64.83376 L 150.504693 64.83376 C 150.583443 79.773762 162.913445 86.445012 176.424696 86.445012 C 188.934697 86.445012 201.804699 81.135012 201.804699 66.74626 C 201.804699 43.425008 166.434695 51.255008 166.434695 40.353757 C 166.434695 35.763757 171.744696 33.975007 175.524696 33.975007 C 182.274697 33.975007 185.964697 36.045007 186.662197 42.435007 L 199.723449 42.435007 C 199.273449 28.485006 187.944697 22.905005 175.333446 22.905005 C 164.162195 22.905005 152.473443 28.833756 152.473443 41.445007 C 152.473443 64.03501 187.854697 56.373759 187.854697 68.25376 C 187.854697 73.755011 181.194697 75.465011 176.953446 75.465011 Z M 241.393453 85.005012 L 241.393453 23.805005 L 227.904702 23.805005 L 227.904702 85.005012 Z M 283.513458 72.585011 L 283.513458 36.303757 L 287.563458 36.303757 C 297.992209 36.303757 305.02346 44.246258 305.02346 54.393759 C 305.02346 64.56376 297.913459 72.585011 287.563458 72.585011 Z M 270.204706 23.805005 L 270.204706 85.005012 L 288.373458 85.005012 C 305.75471 85.005012 318.804712 71.685011 318.804712 54.393759 C 318.804712 37.125007 305.66471 23.805005 288.373458 23.805005 Z M 393.40347 85.005012 L 393.40347 23.805005 L 379.914718 23.805005 L 379.914718 61.95376 L 358.843466 23.805005 L 345.354714 23.805005 L 345.354714 85.005012 L 358.843466 85.005012 L 358.843466 46.833758 L 379.914718 85.005012 Z M 457.674727 72.765011 L 435.703474 72.765011 L 435.703474 60.435009 L 456.774727 60.435009 L 456.774727 48.195008 L 435.703474 48.195008 L 435.703474 36.045007 L 457.674727 36.045007 L 457.674727 23.805005 L 422.214723 23.805005 L 422.214723 85.005012 L 457.674727 85.005012 Z M 504.384732 85.005012 L 517.873483 85.005012 L 517.873483 55.755009 L 540.463486 23.805005 L 524.353484 23.805005 L 511.123482 44.943758 L 497.893481 23.805005 L 481.794729 23.805005 L 504.384732 55.755009 Z M 504.384732 85.005012" stroke="#000" stroke-width="3.375"/><g fill="#808080"><g><g><path d="M 13.558594 -21.246094 L 13.558594 -12.777344 L 6.5625 -12.777344 L 6.5625 -21.246094 L 1.875 -21.246094 L 1.875 0 L 6.5625 0 L 6.5625 -8.53125 L 13.558594 -8.53125 L 13.558594 0 L 18.558594 0 L 18.558594 -21.246094 Z M 13.558594 -21.246094" transform="translate(68.068 68.881)"/></g></g></g><g fill="#808080"><g><g><path d="M 18.277344 -10.65625 C 18.277344 -7.375 15.308594 -4.375 12.03125 -4.375 C 8.75 -4.375 5.78125 -7.375 5.78125 -10.65625 C 5.78125 -13.933594 8.75 -16.902344 12.03125 -16.902344 C 15.308594 -16.902344 18.277344 -13.933594 18.277344 -10.65625 Z M 22.964844 -10.625 C 22.964844 -16.496094 17.902344 -21.558594 12.03125 -21.558594 C 6.15625 -21.558594 1.09375 -16.496094 1.09375 -10.625 C 1.09375 -4.75 6.15625 0.3125 12.03125 0.3125 C 17.902344 0.3125 22.964844 -4.75 22.964844 -10.625 Z M 22.964844 -10.625" transform="translate(94.75 68.881)"/></g></g></g><g fill="#808080"><g><g><path d="M 6.5625 -7.59375 L 9.84375 -7.59375 C 13.277344 -7.59375 16.339844 -10.125 16.339844 -14.433594 C 16.339844 -18.464844 13.277344 -21.246094 9.84375 -21.246094 L 1.875 -21.246094 L 1.875 0 L 6.5625 0 Z M 9.0625 -17.558594 C 10.4375 -17.558594 11.875 -16.371094 11.875 -14.433594 C 11.875 -12.402344 10.4375 -11.28125 9.0625 -11.28125 L 6.5625 -11.28125 L 6.5625 -17.558594 Z M 9.0625 -17.558594" transform="translate(125.057 68.881)"/></g></g></g><g fill="#808080"><g><g><path d="M 6.5625 -9.5 L 13.277344 0 L 19.589844 0 L 11.125 -10.625 L 19.277344 -21.246094 L 13.277344 -21.246094 L 6.5625 -11.75 L 6.5625 -21.246094 L 1.875 -21.246094 L 1.875 0 L 6.5625 0 Z M 6.5625 -9.5" transform="translate(148.115 68.881)"/></g></g></g><g fill="#808080"><g><g><path d="M 6.5625 0 L 6.5625 -21.246094 L 1.875 -21.246094 L 1.875 0 Z M 6.5625 0" transform="translate(173.641 68.881)"/></g></g></g><g fill="#808080"><g><g><path d="M 18.558594 0 L 18.558594 -21.246094 L 13.871094 -21.246094 L 13.871094 -8 L 6.5625 -21.246094 L 1.875 -21.246094 L 1.875 0 L 6.5625 0 L 6.5625 -13.246094 L 13.871094 0 Z M 18.558594 0" transform="translate(188.327 68.881)"/></g></g></g><g fill="#808080"><g><g><path d="M 10.125 -3.3125 C 7.8125 -3.3125 5.8125 -4.46875 5.6875 -7 L 0.9375 -7 C 0.96875 -1.8125 5.25 0.5 9.9375 0.5 C 14.277344 0.5 18.746094 -1.34375 18.746094 -6.34375 C 18.746094 -14.433594 6.46875 -11.71875 6.46875 -15.496094 C 6.46875 -17.089844 8.3125 -17.714844 9.625 -17.714844 C 11.96875 -17.714844 13.246094 -16.996094 13.496094 -14.777344 L 18.027344 -14.777344 C 17.871094 -19.621094 13.933594 -21.558594 9.5625 -21.558594 C 5.6875 -21.558594 1.625 -19.496094 1.625 -15.121094 C 1.625 -7.28125 13.902344 -9.9375 13.902344 -5.8125 C 13.902344 -3.90625 11.59375 -3.3125 10.125 -3.3125 Z M 10.125 -3.3125" transform="translate(215.01 68.881)"/></g></g></g><path transform="matrix(.75 0 0 .75 30.382 37.5)" fill="none" d="M 66.490594 11.671881 L 66.490594 22.963549 L 57.152052 22.963549 L 57.152052 11.671881 L 50.907259 11.671881 L 50.907259 40.000009 L 57.152052 40.000009 L 57.152052 28.630216 L 66.490594 28.630216 L 66.490594 40.000009 L 73.152053 40.000009 L 73.152053 11.671881 Z M 108.349972 25.791674 C 108.349972 30.166675 104.396847 34.171883 100.021847 34.171883 C 95.646846 34.171883 91.693721 30.166675 91.693721 25.791674 C 91.693721 21.416674 95.646846 17.463549 100.021847 17.463549 C 104.396847 17.463549 108.349972 21.416674 108.349972 25.791674 Z M 114.605181 25.833341 C 114.605181 18.000007 107.855181 11.255215 100.021847 11.255215 C 92.188513 11.255215 85.438512 18.000007 85.438512 25.833341 C 85.438512 33.661466 92.188513 40.416675 100.021847 40.416675 C 107.855181 40.416675 114.605181 33.661466 114.605181 25.833341 Z M 133.136433 29.880216 L 137.511433 29.880216 C 142.099975 29.880216 146.178101 26.505216 146.178101 20.755215 C 146.178101 15.375007 142.099975 11.671881 137.511433 11.671881 L 126.891641 11.671881 L 126.891641 40.000009 L 133.136433 40.000009 Z M 136.474975 16.588548 C 138.3031 16.588548 140.219767 18.171882 140.219767 20.755215 C 140.219767 23.463549 138.3031 24.958341 136.474975 24.958341 L 133.136433 24.958341 L 133.136433 16.588548 Z M 163.881227 27.338549 L 172.844769 40.000009 L 181.256228 40.000009 L 169.964561 25.833341 L 180.839562 11.671881 L 172.844769 11.671881 L 163.881227 24.338549 L 163.881227 11.671881 L 157.636435 11.671881 L 157.636435 40.000009 L 163.881227 40.000009 Z M 197.917688 40.000009 L 197.917688 11.671881 L 191.672896 11.671881 L 191.672896 40.000009 Z M 233.495816 40.000009 L 233.495816 11.671881 L 227.251024 11.671881 L 227.251024 29.328133 L 217.501023 11.671881 L 211.256231 11.671881 L 211.256231 40.000009 L 217.501023 40.000009 L 217.501023 22.333341 L 227.251024 40.000009 Z M 257.823943 35.583342 C 254.740609 35.583342 252.079151 34.041675 251.907276 30.661466 L 245.57915 30.661466 C 245.620817 37.578133 251.323942 40.671884 257.579151 40.671884 C 263.36561 40.671884 269.329152 38.208342 269.329152 31.546883 C 269.329152 20.755215 252.954151 24.375007 252.954151 19.33334 C 252.954151 17.20834 255.412484 16.385423 257.162485 16.385423 C 260.287485 16.385423 261.995818 17.338548 262.318735 20.296882 L 268.360402 20.296882 C 268.157277 13.838548 262.912485 11.255215 257.073943 11.255215 C 251.907276 11.255215 246.495817 14.005215 246.495817 19.843757 C 246.495817 30.296883 262.870818 26.744799 262.870818 32.250008 C 262.870818 34.791675 259.787485 35.583342 257.823943 35.583342 Z M 257.823943 35.583342" stroke="#000" stroke-width="1.563"/></svg>