<svg xmlns="http://www.w3.org/2000/svg" width="300" viewBox="0 0 300 75" height="75" version="1.0"><g fill="#808080"><g><g><path d="M 6.761719 -2.210938 C 5.21875 -2.210938 3.882812 -2.984375 3.796875 -4.675781 L 0.625 -4.675781 C 0.648438 -1.210938 3.507812 0.332031 6.636719 0.332031 C 9.539062 0.332031 12.523438 -0.898438 12.523438 -4.238281 C 12.523438 -9.640625 4.320312 -7.824219 4.320312 -10.351562 C 4.320312 -11.414062 5.550781 -11.832031 6.429688 -11.832031 C 7.992188 -11.832031 8.847656 -11.351562 9.015625 -9.871094 L 12.042969 -9.871094 C 11.9375 -13.105469 9.308594 -14.398438 6.386719 -14.398438 C 3.796875 -14.398438 1.085938 -13.023438 1.085938 -10.101562 C 1.085938 -4.863281 9.285156 -6.636719 9.285156 -3.882812 C 9.285156 -2.609375 7.742188 -2.210938 6.761719 -2.210938 Z M 6.761719 -2.210938" transform="translate(44.78 47.374)"/></g></g></g><g fill="#808080"><g><g><path d="M 4.382812 0 L 4.382812 -14.191406 L 1.253906 -14.191406 L 1.253906 0 Z M 4.382812 0" transform="translate(62.103 47.374)"/></g></g></g><g fill="#808080"><g><g><path d="M 4.339844 -2.878906 L 4.339844 -11.289062 L 5.28125 -11.289062 C 7.699219 -11.289062 9.328125 -9.453125 9.328125 -7.09375 C 9.328125 -4.738281 7.679688 -2.878906 5.28125 -2.878906 Z M 1.253906 -14.191406 L 1.253906 0 L 5.46875 0 C 9.496094 0 12.523438 -3.089844 12.523438 -7.09375 C 12.523438 -11.101562 9.476562 -14.191406 5.46875 -14.191406 Z M 1.253906 -14.191406" transform="translate(71.911 47.374)"/></g></g></g><g fill="#808080"><g><g><path d="M 12.398438 0 L 12.398438 -14.191406 L 9.265625 -14.191406 L 9.265625 -5.34375 L 4.382812 -14.191406 L 1.253906 -14.191406 L 1.253906 0 L 4.382812 0 L 4.382812 -8.847656 L 9.265625 0 Z M 12.398438 0" transform="translate(89.337 47.374)"/></g></g></g><g fill="#808080"><g><g><path d="M 9.476562 -2.839844 L 4.382812 -2.839844 L 4.382812 -5.699219 L 9.265625 -5.699219 L 9.265625 -8.535156 L 4.382812 -8.535156 L 4.382812 -11.351562 L 9.476562 -11.351562 L 9.476562 -14.191406 L 1.253906 -14.191406 L 1.253906 0 L 9.476562 0 Z M 9.476562 -2.839844" transform="translate(107.16 47.374)"/></g></g></g><g fill="#808080"><g><g><path d="M 5.40625 0 L 8.535156 0 L 8.535156 -6.78125 L 13.773438 -14.191406 L 10.039062 -14.191406 L 6.96875 -9.285156 L 3.902344 -14.191406 L 0.167969 -14.191406 L 5.40625 -6.78125 Z M 5.40625 0" transform="translate(122.06 47.374)"/></g></g></g><path transform="matrix(.23188 0 0 .23188 9.587 26.742)" fill="none" d="M 176.960127 75.469887 C 170.289213 75.469887 164.544815 72.117584 164.174208 64.823378 L 150.495466 64.823378 C 150.579694 79.765551 162.910778 86.453311 176.421063 86.453311 C 188.93745 86.453311 201.807597 81.130057 201.807597 66.743792 C 201.807597 43.429285 166.431538 51.245709 166.431538 40.346514 C 166.431538 35.764472 171.754793 33.978823 175.528239 33.978823 C 182.266536 33.978823 185.955753 36.05085 186.663275 42.435386 L 199.718725 42.435386 C 199.280736 28.487111 187.943551 22.911171 175.32609 22.911171 C 164.174208 22.911171 152.483263 28.840872 152.483263 41.458333 C 152.483263 64.031628 187.859322 56.366815 187.859322 68.259909 C 187.859322 73.751621 181.188408 75.469887 176.960127 75.469887 Z M 241.395092 85.004577 L 241.395092 23.803995 L 227.901652 23.803995 L 227.901652 85.004577 Z M 283.509448 72.589265 L 283.509448 36.303536 L 287.552426 36.303536 C 297.996786 36.303536 305.021461 44.237881 305.021461 54.395863 C 305.021461 64.570692 297.912558 72.589265 287.552426 72.589265 Z M 270.201311 23.803995 L 270.201311 85.004577 L 288.377867 85.004577 C 305.745828 85.004577 318.801278 71.679595 318.801278 54.395863 C 318.801278 37.128977 305.661599 23.803995 288.377867 23.803995 Z M 393.411071 85.004577 L 393.411071 23.803995 L 379.917632 23.803995 L 379.917632 61.942756 L 358.843608 23.803995 L 345.350168 23.803995 L 345.350168 85.004577 L 358.843608 85.004577 L 358.843608 46.832125 L 379.917632 85.004577 Z M 457.677579 72.757723 L 435.710731 72.757723 L 435.710731 60.426639 L 456.767909 60.426639 L 456.767909 48.19663 L 435.710731 48.19663 L 435.710731 36.05085 L 457.677579 36.05085 L 457.677579 23.803995 L 422.217291 23.803995 L 422.217291 85.004577 L 457.677579 85.004577 Z M 504.373977 85.004577 L 517.867416 85.004577 L 517.867416 55.760368 L 540.457557 23.803995 L 524.353027 23.803995 L 511.129119 44.945402 L 497.905212 23.803995 L 481.783836 23.803995 L 504.373977 55.760368 Z M 504.373977 85.004577" stroke="#000" stroke-width="3.375"/><g fill="#808080"><g><g><path d="M 8.921875 -13.976562 L 8.921875 -8.40625 L 4.316406 -8.40625 L 4.316406 -13.976562 L 1.234375 -13.976562 L 1.234375 0 L 4.316406 0 L 4.316406 -5.613281 L 8.921875 -5.613281 L 8.921875 0 L 12.210938 0 L 12.210938 -13.976562 Z M 8.921875 -13.976562" transform="translate(154.97 47.386)"/></g></g></g><g fill="#808080"><g><g><path d="M 12.023438 -7.007812 C 12.023438 -4.851562 10.070312 -2.878906 7.914062 -2.878906 C 5.753906 -2.878906 3.800781 -4.851562 3.800781 -7.007812 C 3.800781 -9.167969 5.753906 -11.121094 7.914062 -11.121094 C 10.070312 -11.121094 12.023438 -9.167969 12.023438 -7.007812 Z M 15.109375 -6.988281 C 15.109375 -10.851562 11.777344 -14.183594 7.914062 -14.183594 C 4.050781 -14.183594 0.71875 -10.851562 0.71875 -6.988281 C 0.71875 -3.125 4.050781 0.207031 7.914062 0.207031 C 11.777344 0.207031 15.109375 -3.125 15.109375 -6.988281 Z M 15.109375 -6.988281" transform="translate(172.523 47.386)"/></g></g></g><g fill="#808080"><g><g><path d="M 4.316406 -4.996094 L 6.476562 -4.996094 C 8.734375 -4.996094 10.75 -6.660156 10.75 -9.496094 C 10.75 -12.148438 8.734375 -13.976562 6.476562 -13.976562 L 1.234375 -13.976562 L 1.234375 0 L 4.316406 0 Z M 5.960938 -11.550781 C 6.863281 -11.550781 7.8125 -10.769531 7.8125 -9.496094 C 7.8125 -8.160156 6.863281 -7.421875 5.960938 -7.421875 L 4.316406 -7.421875 L 4.316406 -11.550781 Z M 5.960938 -11.550781" transform="translate(192.46 47.386)"/></g></g></g><g fill="#808080"><g><g><path d="M 4.316406 -6.25 L 8.734375 0 L 12.886719 0 L 7.316406 -6.988281 L 12.683594 -13.976562 L 8.734375 -13.976562 L 4.316406 -7.726562 L 4.316406 -13.976562 L 1.234375 -13.976562 L 1.234375 0 L 4.316406 0 Z M 4.316406 -6.25" transform="translate(207.63 47.386)"/></g></g></g><g fill="#808080"><g><g><path d="M 4.316406 0 L 4.316406 -13.976562 L 1.234375 -13.976562 L 1.234375 0 Z M 4.316406 0" transform="translate(224.422 47.386)"/></g></g></g><g fill="#808080"><g><g><path d="M 12.210938 0 L 12.210938 -13.976562 L 9.125 -13.976562 L 9.125 -5.261719 L 4.316406 -13.976562 L 1.234375 -13.976562 L 1.234375 0 L 4.316406 0 L 4.316406 -8.714844 L 9.125 0 Z M 12.210938 0" transform="translate(234.082 47.386)"/></g></g></g><g fill="#808080"><g><g><path d="M 6.660156 -2.179688 C 5.136719 -2.179688 3.824219 -2.9375 3.742188 -4.605469 L 0.617188 -4.605469 C 0.636719 -1.191406 3.453125 0.328125 6.535156 0.328125 C 9.394531 0.328125 12.332031 -0.882812 12.332031 -4.171875 C 12.332031 -9.496094 4.253906 -7.707031 4.253906 -10.195312 C 4.253906 -11.242188 5.46875 -11.65625 6.332031 -11.65625 C 7.871094 -11.65625 8.714844 -11.179688 8.878906 -9.722656 L 11.859375 -9.722656 C 11.757812 -12.90625 9.167969 -14.183594 6.289062 -14.183594 C 3.742188 -14.183594 1.070312 -12.824219 1.070312 -9.949219 C 1.070312 -4.789062 9.148438 -6.535156 9.148438 -3.824219 C 9.148438 -2.570312 7.625 -2.179688 6.660156 -2.179688 Z M 6.660156 -2.179688" transform="translate(251.635 47.386)"/></g></g></g><path transform="matrix(.49339 0 0 .49339 130.179 26.742)" fill="none" d="M 66.490559 11.670461 L 66.490559 22.960443 L 57.156135 22.960443 L 57.156135 11.670461 L 50.909434 11.670461 L 50.909434 39.998339 L 57.156135 39.998339 L 57.156135 28.629185 L 66.490559 28.629185 L 66.490559 39.998339 L 73.148956 39.998339 L 73.148956 11.670461 Z M 108.348998 25.794814 C 108.348998 30.165129 104.398296 34.171252 100.020063 34.171252 C 95.649748 34.171252 91.691128 30.165129 91.691128 25.794814 C 91.691128 21.416581 95.649748 17.457962 100.020063 17.457962 C 104.398296 17.457962 108.348998 21.416581 108.348998 25.794814 Z M 114.603616 25.8344 C 114.603616 18.004251 107.850212 11.258764 100.020063 11.258764 C 92.189914 11.258764 85.43651 18.004251 85.43651 25.8344 C 85.43651 33.664549 92.189914 40.417953 100.020063 40.417953 C 107.850212 40.417953 114.603616 33.664549 114.603616 25.8344 Z M 133.137871 29.880109 L 137.508186 29.880109 C 142.100184 29.880109 146.177562 26.499448 146.177562 20.75945 C 146.177562 15.375728 142.100184 11.670461 137.508186 11.670461 L 126.89117 11.670461 L 126.89117 39.998339 L 133.137871 39.998339 Z M 136.471028 16.587066 C 138.307827 16.587066 140.215882 18.170513 140.215882 20.75945 C 140.215882 23.459229 138.307827 24.955587 136.471028 24.955587 L 133.137871 24.955587 L 133.137871 16.587066 Z M 163.880507 27.338675 L 172.84282 39.998339 L 181.250927 39.998339 L 169.968863 25.8344 L 180.839231 11.670461 L 172.84282 11.670461 L 163.880507 24.338042 L 163.880507 11.670461 L 157.641723 11.670461 L 157.641723 39.998339 L 163.880507 39.998339 Z M 197.916714 39.998339 L 197.916714 11.670461 L 191.670013 11.670461 L 191.670013 39.998339 Z M 233.496782 39.998339 L 233.496782 11.670461 L 227.250081 11.670461 L 227.250081 29.333819 L 217.496044 11.670461 L 211.25726 11.670461 L 211.25726 39.998339 L 217.496044 39.998339 L 217.496044 22.334981 L 227.250081 39.998339 Z M 257.826455 35.588437 C 254.74665 35.588437 252.07854 34.036659 251.904361 30.663915 L 245.578488 30.663915 C 245.618074 37.575664 251.326403 40.671304 257.581021 40.671304 C 263.368522 40.671304 269.330202 38.209043 269.330202 31.550646 C 269.330202 20.75945 252.949437 24.377628 252.949437 19.334347 C 252.949437 17.20461 255.411698 16.381218 257.161407 16.381218 C 260.288716 16.381218 261.99884 17.339203 262.323447 20.30025 L 268.364299 20.30025 C 268.158451 13.839784 262.909322 11.258764 257.074318 11.258764 C 251.904361 11.258764 246.496887 14.006046 246.496887 19.841051 C 246.496887 30.299722 262.869736 26.744882 262.869736 32.247363 C 262.869736 34.788796 259.78993 35.588437 257.826455 35.588437 Z M 257.826455 35.588437" stroke="#000" stroke-width="1.563"/></svg>