<svg xmlns="http://www.w3.org/2000/svg" width="300" viewBox="0 0 300 75" height="75" version="1.0"><g fill="#808080"><g><g><path d="M 8.871094 -2.902344 C 6.84375 -2.902344 5.09375 -3.914062 4.980469 -6.132812 L 0.820312 -6.132812 C 0.847656 -1.585938 4.597656 0.4375 8.707031 0.4375 C 12.511719 0.4375 16.425781 -1.175781 16.425781 -5.558594 C 16.425781 -12.648438 5.667969 -10.265625 5.667969 -13.578125 C 5.667969 -14.972656 7.28125 -15.523438 8.433594 -15.523438 C 10.484375 -15.523438 11.605469 -14.890625 11.828125 -12.949219 L 15.796875 -12.949219 C 15.660156 -17.191406 12.210938 -18.890625 8.378906 -18.890625 C 4.980469 -18.890625 1.421875 -17.082031 1.421875 -13.25 C 1.421875 -6.378906 12.183594 -8.707031 12.183594 -5.09375 C 12.183594 -3.421875 10.15625 -2.902344 8.871094 -2.902344 Z M 8.871094 -2.902344" transform="translate(6.316 48.864)"/></g></g></g><g fill="#808080"><g><g><path d="M 5.75 0 L 5.75 -18.617188 L 1.640625 -18.617188 L 1.640625 0 Z M 5.75 0" transform="translate(29.037 48.864)"/></g></g></g><g fill="#808080"><g><g><path d="M 5.695312 -3.777344 L 5.695312 -14.808594 L 6.925781 -14.808594 C 10.101562 -14.808594 12.238281 -12.402344 12.238281 -9.308594 C 12.238281 -6.214844 10.074219 -3.777344 6.925781 -3.777344 Z M 1.640625 -18.617188 L 1.640625 0 L 7.171875 0 C 12.457031 0 16.425781 -4.050781 16.425781 -9.308594 C 16.425781 -14.5625 12.429688 -18.617188 7.171875 -18.617188 Z M 1.640625 -18.617188" transform="translate(41.904 48.864)"/></g></g></g><g fill="#808080"><g><g><path d="M 16.261719 0 L 16.261719 -18.617188 L 12.15625 -18.617188 L 12.15625 -7.007812 L 5.75 -18.617188 L 1.640625 -18.617188 L 1.640625 0 L 5.75 0 L 5.75 -11.605469 L 12.15625 0 Z M 16.261719 0" transform="translate(64.763 48.864)"/></g></g></g><g fill="#808080"><g><g><path d="M 12.429688 -3.722656 L 5.75 -3.722656 L 5.75 -7.472656 L 12.15625 -7.472656 L 12.15625 -11.195312 L 5.75 -11.195312 L 5.75 -14.890625 L 12.429688 -14.890625 L 12.429688 -18.617188 L 1.640625 -18.617188 L 1.640625 0 L 12.429688 0 Z M 12.429688 -3.722656" transform="translate(88.142 48.864)"/></g></g></g><g fill="#808080"><g><g><path d="M 7.089844 0 L 11.195312 0 L 11.195312 -8.898438 L 18.066406 -18.617188 L 13.167969 -18.617188 L 9.144531 -12.183594 L 5.121094 -18.617188 L 0.21875 -18.617188 L 7.089844 -8.898438 Z M 7.089844 0" transform="translate(107.688 48.864)"/></g></g></g><path transform="matrix(.30418 0 0 .30418 -39.161 21.799)" fill="none" d="M 174.694825 75.466234 C 168.029793 75.466234 162.276549 72.127297 161.904129 64.833005 L 148.240173 64.833005 C 148.317225 79.768325 160.645606 86.446199 174.155458 86.446199 C 186.663628 86.446199 199.544218 81.129584 199.544218 66.746472 C 199.544218 43.425284 164.164332 51.246101 164.164332 40.356031 C 164.164332 35.758572 169.480947 33.973525 173.256513 33.973525 C 180.011439 33.973525 183.697111 36.041097 184.403425 42.436445 L 197.450962 42.436445 C 197.014332 28.489964 185.674789 22.903666 173.063882 22.903666 C 161.904129 22.903666 150.205008 28.836699 150.205008 41.447606 C 150.205008 64.036797 185.584895 56.370085 185.584895 68.261836 C 185.584895 73.745397 178.932706 75.466234 174.694825 75.466234 Z M 239.12346 84.995045 L 239.12346 23.80261 L 225.639293 23.80261 L 225.639293 84.995045 Z M 281.258272 72.589612 L 281.258272 36.310781 L 285.29068 36.310781 C 295.731278 36.310781 302.768729 44.234334 302.768729 54.392407 C 302.768729 64.563322 295.641384 72.589612 285.29068 72.589612 Z M 267.941051 23.80261 L 267.941051 84.995045 L 286.112572 84.995045 C 303.487885 84.995045 316.535422 71.690667 316.535422 54.392407 C 316.535422 37.119831 303.39799 23.80261 286.112572 23.80261 Z M 391.134972 84.995045 L 391.134972 23.80261 L 377.650804 23.80261 L 377.650804 61.956383 L 356.576977 23.80261 L 343.09281 23.80261 L 343.09281 84.995045 L 356.576977 84.995045 L 356.576977 46.828431 L 377.650804 84.995045 Z M 455.409502 72.756558 L 433.436731 72.756558 L 433.436731 60.428177 L 454.510558 60.428177 L 454.510558 48.18969 L 433.436731 48.18969 L 433.436731 36.041097 L 455.409502 36.041097 L 455.409502 23.80261 L 419.952563 23.80261 L 419.952563 84.995045 L 455.409502 84.995045 Z M 502.116089 84.995045 L 515.600256 84.995045 L 515.600256 55.753666 L 538.189447 23.80261 L 522.085499 23.80261 L 508.858173 44.940648 L 495.630847 23.80261 L 479.526898 23.80261 L 502.116089 55.753666 Z M 502.116089 84.995045" stroke="#000" stroke-width="3.375"/><g fill="#808080"><g><g><path d="M 11.878906 -18.613281 L 11.878906 -11.195312 L 5.746094 -11.195312 L 5.746094 -18.613281 L 1.640625 -18.613281 L 1.640625 0 L 5.746094 0 L 5.746094 -7.472656 L 11.878906 -7.472656 L 11.878906 0 L 16.257812 0 L 16.257812 -18.613281 Z M 11.878906 -18.613281" transform="translate(150.623 49.29)"/></g></g></g><g fill="#808080"><g><g><path d="M 16.011719 -9.332031 C 16.011719 -6.460938 13.410156 -3.832031 10.539062 -3.832031 C 7.664062 -3.832031 5.0625 -6.460938 5.0625 -9.332031 C 5.0625 -12.207031 7.664062 -14.808594 10.539062 -14.808594 C 13.410156 -14.808594 16.011719 -12.207031 16.011719 -9.332031 Z M 20.117188 -9.304688 C 20.117188 -14.453125 15.683594 -18.886719 10.539062 -18.886719 C 5.390625 -18.886719 0.957031 -14.453125 0.957031 -9.304688 C 0.957031 -4.160156 5.390625 0.273438 10.539062 0.273438 C 15.683594 0.273438 20.117188 -4.160156 20.117188 -9.304688 Z M 20.117188 -9.304688" transform="translate(173.997 49.29)"/></g></g></g><g fill="#808080"><g><g><path d="M 5.746094 -6.652344 L 8.621094 -6.652344 C 11.632812 -6.652344 14.316406 -8.867188 14.316406 -12.644531 C 14.316406 -16.175781 11.632812 -18.613281 8.621094 -18.613281 L 1.640625 -18.613281 L 1.640625 0 L 5.746094 0 Z M 7.9375 -15.382812 C 9.140625 -15.382812 10.402344 -14.34375 10.402344 -12.644531 C 10.402344 -10.867188 9.140625 -9.882812 7.9375 -9.882812 L 5.746094 -9.882812 L 5.746094 -15.382812 Z M 7.9375 -15.382812" transform="translate(200.547 49.29)"/></g></g></g><g fill="#808080"><g><g><path d="M 5.746094 -8.320312 L 11.632812 0 L 17.160156 0 L 9.746094 -9.304688 L 16.886719 -18.613281 L 11.632812 -18.613281 L 5.746094 -10.292969 L 5.746094 -18.613281 L 1.640625 -18.613281 L 1.640625 0 L 5.746094 0 Z M 5.746094 -8.320312" transform="translate(220.746 49.29)"/></g></g></g><g fill="#808080"><g><g><path d="M 5.746094 0 L 5.746094 -18.613281 L 1.640625 -18.613281 L 1.640625 0 Z M 5.746094 0" transform="translate(243.108 49.29)"/></g></g></g><g fill="#808080"><g><g><path d="M 16.257812 0 L 16.257812 -18.613281 L 12.152344 -18.613281 L 12.152344 -7.007812 L 5.746094 -18.613281 L 1.640625 -18.613281 L 1.640625 0 L 5.746094 0 L 5.746094 -11.605469 L 12.152344 0 Z M 16.257812 0" transform="translate(255.973 49.29)"/></g></g></g><g fill="#808080"><g><g><path d="M 8.867188 -2.902344 C 6.84375 -2.902344 5.089844 -3.914062 4.980469 -6.132812 L 0.820312 -6.132812 C 0.847656 -1.585938 4.597656 0.4375 8.703125 0.4375 C 12.507812 0.4375 16.421875 -1.175781 16.421875 -5.554688 C 16.421875 -12.644531 5.664062 -10.265625 5.664062 -13.578125 C 5.664062 -14.972656 7.28125 -15.519531 8.429688 -15.519531 C 10.484375 -15.519531 11.605469 -14.890625 11.824219 -12.945312 L 15.792969 -12.945312 C 15.65625 -17.1875 12.207031 -18.886719 8.375 -18.886719 C 4.980469 -18.886719 1.421875 -17.078125 1.421875 -13.246094 C 1.421875 -6.378906 12.179688 -8.703125 12.179688 -5.089844 C 12.179688 -3.421875 10.15625 -2.902344 8.867188 -2.902344 Z M 8.867188 -2.902344" transform="translate(279.348 49.29)"/></g></g></g><path transform="translate(117.61 21.799) scale(.65702)" fill="none" d="M 66.487749 11.673721 L 66.487749 22.964036 L 57.15347 22.964036 L 57.15347 11.673721 L 50.9108 11.673721 L 50.9108 39.997608 L 57.15347 39.997608 L 57.15347 28.630002 L 66.487749 28.630002 L 66.487749 39.997608 L 73.152542 39.997608 L 73.152542 11.673721 Z M 108.349311 25.794047 C 108.349311 30.163916 104.39562 34.171115 100.019805 34.171115 C 95.649936 34.171115 91.6903 30.163916 91.6903 25.794047 C 91.6903 21.418232 95.649936 17.458596 100.019805 17.458596 C 104.39562 17.458596 108.349311 21.418232 108.349311 25.794047 Z M 114.609817 25.829719 C 114.609817 17.999627 107.855843 11.257543 100.019805 11.257543 C 92.189713 11.257543 85.435739 17.999627 85.435739 25.829719 C 85.435739 33.665756 92.189713 40.419731 100.019805 40.419731 C 107.855843 40.419731 114.609817 33.665756 114.609817 25.829719 Z M 133.135684 29.878536 L 137.511499 29.878536 C 142.101348 29.878536 146.179892 26.501549 146.179892 20.758293 C 146.179892 15.377706 142.101348 11.673721 137.511499 11.673721 L 126.893014 11.673721 L 126.893014 39.997608 L 133.135684 39.997608 Z M 136.476999 16.584622 C 138.308182 16.584622 140.216656 18.172044 140.216656 20.758293 C 140.216656 23.46345 138.308182 24.955745 136.476999 24.955745 L 133.135684 24.955745 L 133.135684 16.584622 Z M 163.885294 27.339851 L 172.845012 39.997608 L 181.251807 39.997608 L 169.967438 25.829719 L 180.835629 11.673721 L 172.845012 11.673721 L 163.885294 24.337424 L 163.885294 11.673721 L 157.636678 11.673721 L 157.636678 39.997608 L 163.885294 39.997608 Z M 197.916764 39.997608 L 197.916764 11.673721 L 191.674094 11.673721 L 191.674094 39.997608 Z M 233.499984 39.997608 L 233.499984 11.673721 L 227.251368 11.673721 L 227.251368 29.33156 L 217.500912 11.673721 L 211.252297 11.673721 L 211.252297 39.997608 L 217.500912 39.997608 L 217.500912 22.333824 L 227.251368 39.997608 Z M 257.822616 35.586121 C 254.742899 35.586121 252.079359 34.040317 251.906943 30.663329 L 245.581037 30.663329 C 245.622655 37.57783 251.324293 40.669438 257.578854 40.669438 C 263.369674 40.669438 269.326965 38.208042 269.326965 31.549194 C 269.326965 20.758293 252.953333 24.379041 252.953333 19.331397 C 252.953333 17.208889 255.414729 16.382478 257.162676 16.382478 C 260.284011 16.382478 261.996287 17.339688 262.323284 20.300497 L 268.36381 20.300497 C 268.155721 13.837847 262.911878 11.257543 257.073495 11.257543 C 251.906943 11.257543 246.496629 14.004318 246.496629 19.842701 C 246.496629 30.294714 262.870261 26.745311 262.870261 32.250751 C 262.870261 34.795382 259.790543 35.586121 257.822616 35.586121 Z M 257.822616 35.586121" stroke="#000" stroke-width="1.563"/></svg>