<svg xmlns="http://www.w3.org/2000/svg" width="375" viewBox="0 0 375 75" height="75" version="1.0"><g fill="#808080"><g><g><path d="M 11.445312 -3.746094 C 8.832031 -3.746094 6.570312 -5.050781 6.429688 -7.914062 L 1.058594 -7.914062 C 1.09375 -2.050781 5.933594 0.566406 11.234375 0.566406 C 16.144531 0.566406 21.199219 -1.519531 21.199219 -7.171875 C 21.199219 -16.324219 7.3125 -13.25 7.3125 -17.523438 C 7.3125 -19.324219 9.398438 -20.03125 10.882812 -20.03125 C 13.53125 -20.03125 14.980469 -19.21875 15.261719 -16.710938 L 20.386719 -16.710938 C 20.210938 -22.1875 15.757812 -24.378906 10.8125 -24.378906 C 6.429688 -24.378906 1.835938 -22.046875 1.835938 -17.101562 C 1.835938 -8.230469 15.722656 -11.234375 15.722656 -6.570312 C 15.722656 -4.417969 13.109375 -3.746094 11.445312 -3.746094 Z M 11.445312 -3.746094" transform="translate(3.943 51.23)"/></g></g></g><g fill="#808080"><g><g><path d="M 7.417969 0 L 7.417969 -24.023438 L 2.121094 -24.023438 L 2.121094 0 Z M 7.417969 0" transform="translate(33.268 51.23)"/></g></g></g><g fill="#808080"><g><g><path d="M 7.347656 -4.875 L 7.347656 -19.113281 L 8.9375 -19.113281 C 13.035156 -19.113281 15.792969 -16.003906 15.792969 -12.011719 C 15.792969 -8.019531 13 -4.875 8.9375 -4.875 Z M 2.121094 -24.023438 L 2.121094 0 L 9.257812 0 C 16.074219 0 21.199219 -5.230469 21.199219 -12.011719 C 21.199219 -18.796875 16.039062 -24.023438 9.257812 -24.023438 Z M 2.121094 -24.023438" transform="translate(49.873 51.23)"/></g></g></g><g fill="#808080"><g><g><path d="M 20.988281 0 L 20.988281 -24.023438 L 15.6875 -24.023438 L 15.6875 -9.042969 L 7.417969 -24.023438 L 2.121094 -24.023438 L 2.121094 0 L 7.417969 0 L 7.417969 -14.980469 L 15.6875 0 Z M 20.988281 0" transform="translate(79.374 51.23)"/></g></g></g><g fill="#808080"><g><g><path d="M 16.039062 -4.804688 L 7.417969 -4.804688 L 7.417969 -9.644531 L 15.6875 -9.644531 L 15.6875 -14.449219 L 7.417969 -14.449219 L 7.417969 -19.21875 L 16.039062 -19.21875 L 16.039062 -24.023438 L 2.121094 -24.023438 L 2.121094 0 L 16.039062 0 Z M 16.039062 -4.804688" transform="translate(109.546 51.23)"/></g></g></g><g fill="#808080"><g><g><path d="M 9.152344 0 L 14.449219 0 L 14.449219 -11.484375 L 23.316406 -24.023438 L 16.992188 -24.023438 L 11.800781 -15.722656 L 6.605469 -24.023438 L 0.28125 -24.023438 L 9.152344 -11.484375 Z M 9.152344 0" transform="translate(134.772 51.23)"/></g></g></g><path transform="matrix(.39256 0 0 .39256 -54.748 16.302)" fill="none" d="M 174.689428 75.463543 C 168.032448 75.463543 162.271026 72.120127 161.902852 64.826306 L 148.230669 64.826306 C 148.320225 79.772171 160.649071 86.449053 174.162044 86.449053 C 186.660051 86.449053 199.536183 81.135409 199.536183 66.73683 C 199.536183 43.432425 164.161648 51.25363 164.161648 40.347725 C 164.161648 35.760479 169.485242 33.979314 173.256536 33.979314 C 180.003071 33.979314 183.69476 36.049048 184.401255 42.43736 L 197.456498 42.43736 C 197.008719 28.486559 185.674937 22.904249 173.067473 22.904249 C 161.902852 22.904249 150.210847 28.834832 150.210847 41.452247 C 150.210847 64.040205 185.585382 56.36826 185.585382 68.259278 C 185.585382 73.752033 178.928402 75.463543 174.689428 75.463543 Z M 239.12979 84.996259 L 239.12979 23.809757 L 225.636718 23.809757 L 225.636718 84.996259 Z M 281.25086 72.587807 L 281.25086 36.307765 L 285.29082 36.307765 C 295.729045 36.307765 302.764149 44.238427 302.764149 54.388082 C 302.764149 64.56759 295.639489 72.587807 285.29082 72.587807 Z M 267.9369 23.809757 L 267.9369 84.996259 L 286.106773 84.996259 C 303.490546 84.996259 316.535838 71.682299 316.535838 54.388082 C 316.535838 37.123717 303.40099 23.809757 286.106773 23.809757 Z M 391.135806 84.996259 L 391.135806 23.809757 L 377.652685 23.809757 L 377.652685 61.950571 L 356.577224 23.809757 L 343.084153 23.809757 L 343.084153 84.996259 L 356.577224 84.996259 L 356.577224 46.835544 L 377.652685 84.996259 Z M 455.407006 72.756968 L 433.435987 72.756968 L 433.435987 60.438073 L 454.511448 60.438073 L 454.511448 48.198782 L 433.435987 48.198782 L 433.435987 36.049048 L 455.407006 36.049048 L 455.407006 23.809757 L 419.942916 23.809757 L 419.942916 84.996259 L 455.407006 84.996259 Z M 502.115323 84.996259 L 515.608394 84.996259 L 515.608394 55.75132 L 538.196353 23.809757 L 522.086262 23.809757 L 508.861858 44.944922 L 495.627504 23.809757 L 479.527364 23.809757 L 502.115323 55.75132 Z M 502.115323 84.996259" stroke="#000" stroke-width="3.375"/><g fill="#808080"><g><g><path d="M 15.332031 -24.019531 L 15.332031 -14.449219 L 7.417969 -14.449219 L 7.417969 -24.019531 L 2.121094 -24.019531 L 2.121094 0 L 7.417969 0 L 7.417969 -9.644531 L 15.332031 -9.644531 L 15.332031 0 L 20.984375 0 L 20.984375 -24.019531 Z M 15.332031 -24.019531" transform="translate(184.028 51.78)"/></g></g></g><g fill="#808080"><g><g><path d="M 20.664062 -12.046875 C 20.664062 -8.335938 17.308594 -4.945312 13.601562 -4.945312 C 9.890625 -4.945312 6.535156 -8.335938 6.535156 -12.046875 C 6.535156 -15.753906 9.890625 -19.109375 13.601562 -19.109375 C 17.308594 -19.109375 20.664062 -15.753906 20.664062 -12.046875 Z M 25.964844 -12.011719 C 25.964844 -18.652344 20.242188 -24.375 13.601562 -24.375 C 6.960938 -24.375 1.238281 -18.652344 1.238281 -12.011719 C 1.238281 -5.371094 6.960938 0.351562 13.601562 0.351562 C 20.242188 0.351562 25.964844 -5.371094 25.964844 -12.011719 Z M 25.964844 -12.011719" transform="translate(214.195 51.78)"/></g></g></g><g fill="#808080"><g><g><path d="M 7.417969 -8.582031 L 11.128906 -8.582031 C 15.011719 -8.582031 18.476562 -11.445312 18.476562 -16.320312 C 18.476562 -20.878906 15.011719 -24.019531 11.128906 -24.019531 L 2.121094 -24.019531 L 2.121094 0 L 7.417969 0 Z M 10.246094 -19.851562 C 11.796875 -19.851562 13.421875 -18.511719 13.421875 -16.320312 C 13.421875 -14.023438 11.796875 -12.753906 10.246094 -12.753906 L 7.417969 -12.753906 L 7.417969 -19.851562 Z M 10.246094 -19.851562" transform="translate(248.459 51.78)"/></g></g></g><g fill="#808080"><g><g><path d="M 7.417969 -10.738281 L 15.011719 0 L 22.148438 0 L 12.574219 -12.011719 L 21.796875 -24.019531 L 15.011719 -24.019531 L 7.417969 -13.28125 L 7.417969 -24.019531 L 2.121094 -24.019531 L 2.121094 0 L 7.417969 0 Z M 7.417969 -10.738281" transform="translate(274.528 51.78)"/></g></g></g><g fill="#808080"><g><g><path d="M 7.417969 0 L 7.417969 -24.019531 L 2.121094 -24.019531 L 2.121094 0 Z M 7.417969 0" transform="translate(303.388 51.78)"/></g></g></g><g fill="#808080"><g><g><path d="M 20.984375 0 L 20.984375 -24.019531 L 15.683594 -24.019531 L 15.683594 -9.042969 L 7.417969 -24.019531 L 2.121094 -24.019531 L 2.121094 0 L 7.417969 0 L 7.417969 -14.976562 L 15.683594 0 Z M 20.984375 0" transform="translate(319.99 51.78)"/></g></g></g><g fill="#808080"><g><g><path d="M 11.445312 -3.746094 C 8.832031 -3.746094 6.570312 -5.050781 6.429688 -7.914062 L 1.058594 -7.914062 C 1.09375 -2.050781 5.933594 0.566406 11.234375 0.566406 C 16.144531 0.566406 21.195312 -1.519531 21.195312 -7.171875 C 21.195312 -16.320312 7.3125 -13.246094 7.3125 -17.519531 C 7.3125 -19.324219 9.394531 -20.027344 10.878906 -20.027344 C 13.53125 -20.027344 14.976562 -19.214844 15.261719 -16.707031 L 20.382812 -16.707031 C 20.207031 -22.183594 15.753906 -24.375 10.808594 -24.375 C 6.429688 -24.375 1.835938 -22.042969 1.835938 -17.097656 C 1.835938 -8.230469 15.71875 -11.234375 15.71875 -6.570312 C 15.71875 -4.414062 13.105469 -3.746094 11.445312 -3.746094 Z M 11.445312 -3.746094" transform="translate(350.157 51.78)"/></g></g></g><path transform="matrix(.84793 0 0 .84793 141.421 16.302)" fill="none" d="M 66.490151 11.672592 L 66.490151 22.963808 L 57.152209 22.963808 L 57.152209 11.672592 L 50.910023 11.672592 L 50.910023 39.999678 L 57.152209 39.999678 L 57.152209 28.630147 L 66.490151 28.630147 L 66.490151 39.999678 L 73.151553 39.999678 L 73.151553 11.672592 Z M 108.351953 25.792371 C 108.351953 30.164204 104.39473 34.172102 100.022897 34.172102 C 95.651063 34.172102 91.69384 30.164204 91.69384 25.792371 C 91.69384 21.41593 95.651063 17.463314 100.022897 17.463314 C 104.39473 17.463314 108.351953 21.41593 108.351953 25.792371 Z M 114.607959 25.833832 C 114.607959 18.002307 107.854421 11.257982 100.022897 11.257982 C 92.191372 11.257982 85.437834 18.002307 85.437834 25.833832 C 85.437834 33.665356 92.191372 40.418895 100.022897 40.418895 C 107.854421 40.418895 114.607959 33.665356 114.607959 25.833832 Z M 133.136425 29.878584 L 137.512866 29.878584 C 142.101218 29.878584 146.178217 26.501815 146.178217 20.757161 C 146.178217 15.376443 142.101218 11.672592 137.512866 11.672592 L 126.89424 11.672592 L 126.89424 39.999678 L 133.136425 39.999678 Z M 136.47634 16.588026 C 138.305232 16.588026 140.217045 18.172758 140.217045 20.757161 C 140.217045 23.46134 138.305232 24.958543 136.47634 24.958543 L 133.136425 24.958543 L 133.136425 16.588026 Z M 163.88207 27.335642 L 172.842255 39.999678 L 181.254234 39.999678 L 169.963018 25.833832 L 180.839624 11.672592 L 172.842255 11.672592 L 163.88207 24.336628 L 163.88207 11.672592 L 157.639884 11.672592 L 157.639884 39.999678 L 163.88207 39.999678 Z M 197.916955 39.999678 L 197.916955 11.672592 L 191.674769 11.672592 L 191.674769 39.999678 Z M 233.499717 39.999678 L 233.499717 11.672592 L 227.252925 11.672592 L 227.252925 29.330377 L 217.500373 11.672592 L 211.25358 11.672592 L 211.25358 39.999678 L 217.500373 39.999678 L 217.500373 22.332679 L 227.252925 39.999678 Z M 257.823511 35.586383 C 254.741576 35.586383 252.078858 34.038505 251.9038 30.661736 L 245.578692 30.661736 C 245.620153 37.581119 251.327953 40.672267 257.579352 40.672267 C 263.370074 40.672267 269.326639 38.20764 269.326639 31.546238 C 269.326639 20.757161 252.954146 24.378089 252.954146 19.333666 C 252.954146 17.205334 255.414166 16.385327 257.164742 16.385327 C 260.288138 16.385327 261.997253 17.338931 262.319728 20.30109 L 268.363822 20.30109 C 268.156517 13.842385 262.909396 11.257982 257.072606 11.257982 C 251.9038 11.257982 246.495441 14.003623 246.495441 19.840412 C 246.495441 30.297801 262.867935 26.745974 262.867935 32.251075 C 262.867935 34.794017 259.785999 35.586383 257.823511 35.586383 Z M 257.823511 35.586383" stroke="#000" stroke-width="1.563"/></svg>