<svg xmlns="http://www.w3.org/2000/svg" width="375" viewBox="0 0 375 375" height="375" version="1.0"><path fill="#545454" d="M 0 0 L 0 375 L 375 375 L 375 0 L 0 0 M 363.054688 363.054688 L 11.695312 363.054688 L 11.695312 11.695312 L 363.054688 11.695312 L 363.054688 363.054688"/><g fill="#545454"><g><g><path d="M 74.671875 -127.328125 L 78.703125 -127.90625 C 80.492188 -127.90625 81.484375 -126.445312 81.671875 -123.53125 C 81.867188 -120.613281 82.128906 -118.226562 82.453125 -116.375 C 82.773438 -114.519531 83.09375 -112.851562 83.40625 -111.375 C 83.726562 -109.90625 84 -108.65625 84.21875 -107.625 C 84.445312 -106.601562 84.5625 -105.753906 84.5625 -105.078125 C 84.5625 -104.410156 84.191406 -103.769531 83.453125 -103.15625 C 82.722656 -102.550781 81.941406 -102.25 81.109375 -102.25 C 79.628906 -102.25 78.1875 -103.816406 76.78125 -106.953125 C 74.09375 -112.910156 71.851562 -116.753906 70.0625 -118.484375 C 65.894531 -122.203125 59.773438 -124.0625 51.703125 -124.0625 C 40.421875 -124.0625 32.859375 -120.695312 29.015625 -113.96875 C 27.804688 -111.789062 27.203125 -109.132812 27.203125 -106 C 27.203125 -102.863281 27.953125 -99.914062 29.453125 -97.15625 C 30.960938 -94.40625 33.269531 -91.632812 36.375 -88.84375 C 39.476562 -86.050781 43.429688 -83.050781 48.234375 -79.84375 C 53.046875 -76.644531 58.207031 -73.15625 63.71875 -69.375 C 69.226562 -65.601562 73.519531 -62.191406 76.59375 -59.140625 C 79.664062 -56.097656 82.164062 -53.070312 84.09375 -50.0625 C 87.738281 -44.363281 89.5625 -38.820312 89.5625 -33.4375 C 89.5625 -28.0625 88.789062 -23.273438 87.25 -19.078125 C 85.71875 -14.878906 83.222656 -11.210938 79.765625 -8.078125 C 72.265625 -1.085938 61.179688 2.40625 46.515625 2.40625 C 39.078125 2.40625 30.875 0.769531 21.90625 -2.5 C 19.851562 -3.207031 18.570312 -4.007812 18.0625 -4.90625 C 17.488281 -5.988281 16.976562 -8.035156 16.53125 -11.046875 C 16.082031 -14.054688 15.550781 -16.78125 14.9375 -19.21875 C 14.332031 -21.65625 13.773438 -23.832031 13.265625 -25.75 L 11.921875 -30.75 C 11.535156 -32.226562 11.34375 -33.445312 11.34375 -34.40625 C 11.34375 -36.707031 12.207031 -37.859375 13.9375 -37.859375 C 16.238281 -37.859375 17.90625 -36.097656 18.9375 -32.578125 C 20.726562 -26.296875 22.328125 -22.226562 23.734375 -20.375 C 29.179688 -13.195312 35.492188 -8.519531 42.671875 -6.34375 C 44.785156 -5.695312 47.617188 -5.375 51.171875 -5.375 C 54.722656 -5.375 58.210938 -5.898438 61.640625 -6.953125 C 65.078125 -8.015625 67.914062 -9.445312 70.15625 -11.25 C 74.382812 -14.707031 76.5 -18.914062 76.5 -23.875 C 76.5 -28.84375 74.910156 -33.328125 71.734375 -37.328125 C 68.566406 -41.335938 64.753906 -44.832031 60.296875 -47.8125 C 55.847656 -50.789062 52.519531 -52.984375 50.3125 -54.390625 C 48.101562 -55.796875 46.035156 -57.140625 44.109375 -58.421875 C 27.898438 -69.253906 18.320312 -80.019531 15.375 -90.71875 C 14.601562 -93.539062 14.21875 -96.773438 14.21875 -100.421875 C 14.21875 -104.078125 15.113281 -107.828125 16.90625 -111.671875 C 18.707031 -115.515625 21.273438 -118.878906 24.609375 -121.765625 C 31.972656 -128.035156 41.484375 -131.171875 53.140625 -131.171875 C 58.460938 -131.171875 62.722656 -130.628906 65.921875 -129.546875 C 70.410156 -128.066406 73.328125 -127.328125 74.671875 -127.328125 Z M 74.671875 -127.328125" transform="translate(67.86 247.125)"/></g></g></g><g fill="#545454"><g><g><path d="M 12.78125 1.4375 C 8.613281 1.4375 6.53125 0.253906 6.53125 -2.109375 C 6.53125 -3.972656 7.6875 -4.90625 10 -4.90625 L 14.703125 -4.421875 C 18.160156 -4.421875 20.5625 -6.085938 21.90625 -9.421875 C 23.382812 -13.128906 24.125 -20.144531 24.125 -30.46875 L 24.125 -98.3125 C 24.125 -108.882812 23.5625 -115.53125 22.4375 -118.25 C 21.3125 -120.96875 20.15625 -122.664062 18.96875 -123.34375 C 17.789062 -124.019531 16.367188 -124.359375 14.703125 -124.359375 L 10 -123.96875 C 7.6875 -123.96875 6.53125 -124.894531 6.53125 -126.75 C 6.53125 -129.125 8.289062 -130.3125 11.8125 -130.3125 C 15.34375 -130.3125 18.691406 -130.054688 21.859375 -129.546875 C 25.035156 -129.035156 28.351562 -128.78125 31.8125 -128.78125 C 35.269531 -128.78125 38.519531 -129.035156 41.5625 -129.546875 C 44.601562 -130.054688 47.882812 -130.3125 51.40625 -130.3125 C 54.9375 -130.3125 56.703125 -129.125 56.703125 -126.75 C 56.703125 -124.894531 55.546875 -123.96875 53.234375 -123.96875 L 48.625 -124.359375 C 45.164062 -124.359375 42.765625 -122.691406 41.421875 -119.359375 C 39.941406 -115.640625 39.203125 -108.625 39.203125 -98.3125 L 39.203125 -76.5 L 107.15625 -76.5 L 107.15625 -98.3125 C 107.15625 -108.882812 106.59375 -115.53125 105.46875 -118.25 C 104.34375 -120.96875 103.1875 -122.664062 102 -123.34375 C 100.820312 -124.019531 99.398438 -124.359375 97.734375 -124.359375 L 93.03125 -123.96875 C 90.71875 -123.96875 89.5625 -124.894531 89.5625 -126.75 C 89.5625 -129.125 91.320312 -130.3125 94.84375 -130.3125 C 98.375 -130.3125 101.722656 -130.054688 104.890625 -129.546875 C 108.066406 -129.035156 111.382812 -128.78125 114.84375 -128.78125 C 118.300781 -128.78125 121.550781 -129.035156 124.59375 -129.546875 C 127.632812 -130.054688 130.914062 -130.3125 134.4375 -130.3125 C 137.96875 -130.3125 139.734375 -129.125 139.734375 -126.75 C 139.734375 -124.894531 138.578125 -123.96875 136.265625 -123.96875 L 131.65625 -124.359375 C 128.195312 -124.359375 125.796875 -122.691406 124.453125 -119.359375 C 122.972656 -115.640625 122.234375 -108.625 122.234375 -98.3125 L 122.234375 -30.46875 C 122.234375 -20.019531 122.796875 -13.414062 123.921875 -10.65625 C 125.046875 -7.90625 126.195312 -6.175781 127.375 -5.46875 C 128.5625 -4.769531 129.988281 -4.421875 131.65625 -4.421875 L 136.265625 -4.90625 C 138.578125 -4.90625 139.734375 -3.972656 139.734375 -2.109375 C 139.734375 0.253906 137.679688 1.4375 133.578125 1.4375 C 131.460938 1.4375 129.222656 1.242188 126.859375 0.859375 C 123.203125 0.285156 119.257812 0 115.03125 0 C 110.800781 0 107.050781 0.238281 103.78125 0.71875 C 100.519531 1.195312 97.863281 1.4375 95.8125 1.4375 C 91.644531 1.4375 89.5625 0.253906 89.5625 -2.109375 C 89.5625 -3.972656 90.71875 -4.90625 93.03125 -4.90625 L 97.734375 -4.421875 C 101.191406 -4.421875 103.59375 -6.085938 104.9375 -9.421875 C 106.414062 -13.128906 107.15625 -20.144531 107.15625 -30.46875 L 107.15625 -67.359375 L 39.203125 -67.359375 L 39.203125 -30.46875 C 39.203125 -20.019531 39.765625 -13.414062 40.890625 -10.65625 C 42.015625 -7.90625 43.164062 -6.175781 44.34375 -5.46875 C 45.53125 -4.769531 46.957031 -4.421875 48.625 -4.421875 L 53.234375 -4.90625 C 55.546875 -4.90625 56.703125 -3.972656 56.703125 -2.109375 C 56.703125 0.253906 54.648438 1.4375 50.546875 1.4375 C 48.429688 1.4375 46.191406 1.242188 43.828125 0.859375 C 36.140625 -0.359375 29.554688 -0.566406 24.078125 0.234375 C 18.597656 1.035156 14.832031 1.4375 12.78125 1.4375 Z M 12.78125 1.4375" transform="translate(160.867 247.125)"/></g></g></g></svg>