<svg xmlns="http://www.w3.org/2000/svg" width="375" viewBox="0 0 375 150" height="150" version="1.0"><g fill="#1E1E1E"><g><g><path d="M 14.1875 0.496094 C 20.0625 0.496094 25.839844 -3.285156 25.839844 -9.507812 C 25.839844 -15.132812 20.660156 -17.324219 15.132812 -19.515625 C 10.902344 -21.257812 5.773438 -23.148438 5.773438 -27.828125 C 5.773438 -32.0625 9.210938 -34.402344 13.242188 -34.402344 C 18.917969 -34.402344 22.402344 -31.316406 24.246094 -26.984375 L 24.742188 -27.132812 L 24.542969 -32.90625 C 22.601562 -33.953125 19.367188 -35.199219 14.835938 -35.199219 C 7.515625 -35.199219 2.6875 -31.515625 2.6875 -25.6875 C 2.6875 -20.410156 6.421875 -18.320312 12.296875 -15.980469 C 16.480469 -14.289062 22.601562 -12 22.601562 -7.019531 C 22.601562 -2.988281 19.167969 -0.398438 15.183594 -0.398438 C 8.265625 -0.398438 4.480469 -4.828125 2.539062 -10.054688 L 1.992188 -9.957031 L 2.242188 -3.035156 C 4.582031 -1.34375 8.960938 0.496094 14.1875 0.496094 Z M 14.1875 0.496094" transform="translate(15.578 73.468)"/></g></g></g><g fill="#1E1E1E"><g><g><path d="M 1.59375 0 L 9.460938 0 L 9.460938 -0.648438 C 7.964844 -1.09375 7.46875 -2.242188 7.46875 -6.324219 L 7.46875 -24.941406 L 7.070312 -25.289062 L 1.59375 -22.902344 L 1.59375 -22.351562 C 2.988281 -21.757812 3.585938 -21.257812 3.585938 -17.773438 L 3.585938 -6.324219 C 3.585938 -2.242188 3.136719 -1.09375 1.59375 -0.648438 Z M 2.488281 -31.066406 C 2.488281 -29.570312 3.683594 -28.328125 5.226562 -28.328125 C 6.769531 -28.328125 7.964844 -29.570312 7.964844 -31.066406 C 7.964844 -32.660156 6.820312 -33.855469 5.226562 -33.855469 C 3.683594 -33.855469 2.488281 -32.660156 2.488281 -31.066406 Z M 2.488281 -31.066406" transform="translate(43.006 73.468)"/></g></g></g><g fill="#1E1E1E"><g><g><path d="M 12.792969 0.546875 C 16.328125 0.597656 19.417969 -1.792969 21.855469 -4.332031 L 21.855469 -1.492188 C 21.855469 -0.546875 22.402344 0 23.347656 0 L 27.730469 0 L 27.730469 -0.648438 C 26.1875 -1.09375 25.738281 -2.242188 25.738281 -6.324219 L 25.738281 -39.878906 L 25.339844 -40.226562 L 19.863281 -37.835938 L 19.863281 -37.289062 C 21.207031 -36.691406 21.855469 -36.195312 21.855469 -32.707031 L 21.855469 -23.25 C 20.113281 -24.34375 17.824219 -25.191406 15.085938 -25.191406 C 6.523438 -25.140625 1.792969 -18.769531 1.792969 -11.847656 C 1.792969 -4.828125 6.621094 0.496094 12.792969 0.546875 Z M 5.527344 -14.835938 C 5.527344 -20.113281 8.265625 -24.246094 13.542969 -24.246094 C 17.722656 -24.246094 21.40625 -20.660156 21.855469 -17.425781 L 21.855469 -5.226562 C 19.914062 -3.234375 17.625 -1.890625 15.035156 -1.890625 C 8.265625 -1.890625 5.527344 -9.011719 5.527344 -14.835938 Z M 5.527344 -14.835938" transform="translate(54.207 73.468)"/></g></g></g><g fill="#1E1E1E"><g><g><path d="M 1.59375 0 L 9.460938 0 L 9.460938 -0.648438 C 7.964844 -1.09375 7.46875 -2.242188 7.46875 -6.324219 L 7.46875 -19.863281 C 10.007812 -21.957031 12.695312 -23.597656 15.433594 -23.597656 C 19.8125 -23.597656 22.003906 -20.761719 22.003906 -15.582031 L 22.003906 -6.324219 C 22.003906 -2.242188 21.558594 -1.09375 20.011719 -0.648438 L 20.011719 0 L 27.878906 0 L 27.878906 -0.648438 C 26.335938 -1.09375 25.886719 -2.242188 25.886719 -6.324219 L 25.886719 -16.578125 C 25.886719 -22.402344 22.902344 -25.242188 18.023438 -25.242188 C 14.1875 -25.242188 10.355469 -23 7.46875 -20.660156 L 7.46875 -24.941406 L 7.070312 -25.289062 L 1.59375 -22.902344 L 1.59375 -22.351562 C 2.988281 -21.757812 3.585938 -21.257812 3.585938 -17.773438 L 3.585938 -6.324219 C 3.585938 -2.242188 3.136719 -1.09375 1.59375 -0.648438 Z M 1.59375 0" transform="translate(83.078 73.468)"/></g></g></g><g fill="#1E1E1E"><g><g><path d="M 13.589844 0.496094 C 18.917969 0.496094 22.800781 -3.035156 25.339844 -6.523438 L 24.890625 -6.96875 C 22.601562 -4.382812 19.863281 -2.636719 16.03125 -2.636719 C 9.558594 -2.636719 5.328125 -7.320312 5.328125 -14.140625 C 5.328125 -14.933594 5.375 -15.683594 5.476562 -16.429688 L 24.941406 -16.429688 C 24.792969 -21.160156 21.160156 -25.242188 14.886719 -25.242188 C 7.914062 -25.242188 1.792969 -19.8125 1.792969 -11.699219 C 1.792969 -3.484375 8.113281 0.496094 13.589844 0.496094 Z M 5.625 -17.078125 C 6.421875 -21.257812 9.011719 -24.394531 13.242188 -24.34375 C 17.773438 -24.34375 20.460938 -20.410156 20.960938 -17.078125 Z M 5.625 -17.078125" transform="translate(112.15 73.468)"/></g></g></g><g fill="#1E1E1E"><g><g><path d="M 1.492188 9.609375 C 4.679688 9.558594 9.0625 8.511719 13.292969 -1.246094 L 21.007812 -19.066406 C 22.652344 -22.800781 23.945312 -23.796875 25.339844 -24.246094 L 25.339844 -24.890625 L 19.8125 -24.890625 L 19.8125 -24.246094 C 21.558594 -23.898438 21.65625 -22.304688 20.261719 -19.066406 L 14.140625 -4.828125 L 8.015625 -19.066406 C 6.421875 -22.800781 6.023438 -23.796875 7.515625 -24.246094 L 7.515625 -24.890625 L 0 -24.890625 L 0 -24.246094 C 1.046875 -23.796875 2.289062 -22.800781 3.832031 -19.066406 L 12 0.0976562 C 10.753906 2.6875 9.210938 5.128906 7.46875 6.621094 C 5.175781 6.222656 2.488281 5.476562 1.195312 5.476562 C -0.648438 5.476562 -1.890625 7.269531 -1.890625 8.214844 C -1.890625 9.011719 -0.449219 9.660156 1.492188 9.609375 Z M 1.492188 9.609375" transform="translate(138.88 73.468)"/></g></g></g><g fill="#1E1E1E"><g><g><path d="M 2.539062 0 L 10.605469 0 L 10.605469 -0.648438 C 9.0625 -1.09375 8.613281 -2.242188 8.613281 -6.324219 L 8.613281 -18.070312 L 27.582031 -18.070312 L 27.582031 -6.324219 C 27.582031 -2.242188 27.082031 -1.09375 25.589844 -0.648438 L 25.589844 0 L 33.65625 0 L 33.65625 -0.648438 C 32.109375 -1.09375 31.664062 -2.242188 31.664062 -6.324219 L 31.664062 -28.527344 C 31.664062 -32.609375 32.109375 -33.753906 33.65625 -34.203125 L 33.65625 -34.847656 L 25.589844 -34.847656 L 25.589844 -34.203125 C 27.082031 -33.753906 27.582031 -32.609375 27.582031 -28.527344 L 27.582031 -18.867188 L 8.613281 -18.867188 L 8.613281 -28.527344 C 8.613281 -32.609375 9.0625 -33.753906 10.605469 -34.203125 L 10.605469 -34.847656 L 2.539062 -34.847656 L 2.539062 -34.203125 C 4.03125 -33.753906 4.53125 -32.609375 4.53125 -28.527344 L 4.53125 -6.324219 C 4.53125 -2.242188 4.03125 -1.09375 2.539062 -0.648438 Z M 2.539062 0" transform="translate(174.422 73.468)"/></g></g></g><g fill="#1E1E1E"><g><g><path d="M 14.835938 0.496094 C 20.710938 0.496094 27.828125 -4.082031 27.828125 -12.59375 C 27.828125 -21.457031 21.007812 -25.242188 14.835938 -25.242188 C 8.015625 -25.242188 1.792969 -19.863281 1.792969 -12.097656 C 1.792969 -3.433594 8.511719 0.496094 14.835938 0.496094 Z M 5.625 -14.933594 C 5.625 -19.914062 7.914062 -24.097656 12.992188 -24.296875 C 19.515625 -24.644531 24.046875 -16.082031 24.046875 -9.660156 C 24.046875 -4.828125 21.65625 -0.546875 16.328125 -0.546875 C 9.707031 -0.546875 5.625 -8.613281 5.625 -14.933594 Z M 5.625 -14.933594" transform="translate(210.562 73.468)"/></g></g></g><g fill="#1E1E1E"><g><g><path d="M 15.085938 0.449219 C 23.347656 0.398438 27.929688 -6.125 27.929688 -13.09375 C 27.929688 -20.460938 23.597656 -25.242188 17.824219 -25.242188 C 13.988281 -25.242188 10.554688 -23.300781 7.867188 -21.308594 L 7.867188 -24.941406 L 7.417969 -25.289062 L 1.992188 -22.902344 L 1.992188 -22.351562 C 3.335938 -21.757812 3.984375 -21.257812 3.984375 -17.773438 L 3.984375 7.121094 C 3.984375 11.203125 3.484375 12.347656 1.992188 12.792969 L 1.992188 13.441406 L 9.855469 13.441406 L 9.855469 12.792969 C 8.3125 12.347656 7.867188 11.203125 7.867188 7.121094 L 7.867188 -1.742188 C 9.757812 -0.496094 12.347656 0.449219 15.085938 0.449219 Z M 7.867188 -8.214844 L 7.867188 -20.511719 C 9.957031 -22.105469 12.296875 -23.546875 15.183594 -23.546875 C 22.152344 -23.546875 24.34375 -15.730469 24.34375 -10.207031 C 24.34375 -4.429688 21.90625 -0.496094 16.679688 -0.496094 C 12.199219 -0.496094 7.867188 -4.828125 7.867188 -8.214844 Z M 7.867188 -8.214844" transform="translate(240.529 73.468)"/></g></g></g><g fill="#1E1E1E"><g><g><path d="M 1.84375 0 L 9.707031 0 L 9.707031 -0.648438 C 8.164062 -1.09375 7.714844 -2.242188 7.714844 -6.324219 L 7.714844 -9.90625 L 12.347656 -14.386719 L 16.878906 -5.972656 C 19.316406 -1.492188 20.960938 0 23.398438 0 L 26.636719 0 L 26.636719 -0.597656 C 24.394531 -0.746094 22.851562 -3.035156 20.910156 -6.523438 L 15.085938 -17.027344 L 18.667969 -20.511719 C 21.605469 -23.300781 23.25 -23.796875 24.742188 -24.246094 L 24.742188 -24.890625 L 18.867188 -24.890625 L 18.867188 -24.542969 C 19.964844 -24.046875 19.617188 -22.304688 16.378906 -19.117188 L 7.714844 -10.804688 L 7.714844 -39.878906 L 7.269531 -40.226562 L 1.84375 -37.835938 L 1.84375 -37.289062 C 3.1875 -36.691406 3.832031 -36.195312 3.832031 -32.707031 L 3.832031 -6.324219 C 3.832031 -2.242188 3.386719 -1.09375 1.84375 -0.648438 Z M 1.84375 0" transform="translate(270.595 73.468)"/></g></g></g><g fill="#1E1E1E"><g><g><path d="M 1.59375 0 L 9.460938 0 L 9.460938 -0.648438 C 7.964844 -1.09375 7.46875 -2.242188 7.46875 -6.324219 L 7.46875 -24.941406 L 7.070312 -25.289062 L 1.59375 -22.902344 L 1.59375 -22.351562 C 2.988281 -21.757812 3.585938 -21.257812 3.585938 -17.773438 L 3.585938 -6.324219 C 3.585938 -2.242188 3.136719 -1.09375 1.59375 -0.648438 Z M 2.488281 -31.066406 C 2.488281 -29.570312 3.683594 -28.328125 5.226562 -28.328125 C 6.769531 -28.328125 7.964844 -29.570312 7.964844 -31.066406 C 7.964844 -32.660156 6.820312 -33.855469 5.226562 -33.855469 C 3.683594 -33.855469 2.488281 -32.660156 2.488281 -31.066406 Z M 2.488281 -31.066406" transform="translate(296.978 73.468)"/></g></g></g><g fill="#1E1E1E"><g><g><path d="M 1.59375 0 L 9.460938 0 L 9.460938 -0.648438 C 7.964844 -1.09375 7.46875 -2.242188 7.46875 -6.324219 L 7.46875 -19.863281 C 10.007812 -21.957031 12.695312 -23.597656 15.433594 -23.597656 C 19.8125 -23.597656 22.003906 -20.761719 22.003906 -15.582031 L 22.003906 -6.324219 C 22.003906 -2.242188 21.558594 -1.09375 20.011719 -0.648438 L 20.011719 0 L 27.878906 0 L 27.878906 -0.648438 C 26.335938 -1.09375 25.886719 -2.242188 25.886719 -6.324219 L 25.886719 -16.578125 C 25.886719 -22.402344 22.902344 -25.242188 18.023438 -25.242188 C 14.1875 -25.242188 10.355469 -23 7.46875 -20.660156 L 7.46875 -24.941406 L 7.070312 -25.289062 L 1.59375 -22.902344 L 1.59375 -22.351562 C 2.988281 -21.757812 3.585938 -21.257812 3.585938 -17.773438 L 3.585938 -6.324219 C 3.585938 -2.242188 3.136719 -1.09375 1.59375 -0.648438 Z M 1.59375 0" transform="translate(308.178 73.468)"/></g></g></g><g fill="#1E1E1E"><g><g><path d="M 11.25 0.449219 C 17.226562 0.398438 20.363281 -3.136719 20.363281 -7.320312 C 20.363281 -12.296875 15.78125 -13.441406 12 -14.6875 C 8.066406 -15.980469 4.878906 -17.273438 4.878906 -20.410156 C 4.878906 -22.949219 7.070312 -24.59375 10.453125 -24.59375 C 13.988281 -24.59375 17.175781 -22.304688 18.769531 -18.71875 L 19.265625 -18.820312 L 19.066406 -23.898438 C 17.523438 -24.542969 14.585938 -25.242188 11.351562 -25.242188 C 5.574219 -25.242188 2.289062 -22.203125 2.289062 -18.269531 C 2.289062 -13.742188 5.675781 -12.445312 10.40625 -10.953125 C 14.238281 -9.707031 17.722656 -8.5625 17.722656 -4.976562 C 17.722656 -2.191406 15.433594 -0.347656 12.347656 -0.347656 C 7.816406 -0.398438 4.28125 -3.234375 2.191406 -7.964844 L 1.742188 -7.867188 L 2.191406 -1.84375 C 3.832031 -0.746094 7.269531 0.449219 11.25 0.449219 Z M 11.25 0.449219" transform="translate(337.249 73.468)"/></g></g></g><g fill="#1E1E1E"><g><g><path d="M 1.515625 0 L 1.515625 -12.46875 L 8.984375 -12.46875 L 8.984375 -11.125 L 3.015625 -11.125 L 3.015625 -6.921875 L 8.421875 -6.921875 L 8.421875 -5.578125 L 3.015625 -5.578125 L 3.015625 0 Z M 1.515625 0" transform="translate(65.19 111.517)"/></g></g></g><g fill="#1E1E1E"><g><g><path d="M 1.515625 0 L 1.515625 -12.46875 L 5.71875 -12.46875 C 6.695312 -12.46875 7.5 -12.300781 8.125 -11.96875 C 8.75 -11.632812 9.207031 -11.179688 9.5 -10.609375 C 9.800781 -10.035156 9.953125 -9.378906 9.953125 -8.640625 C 9.953125 -7.816406 9.757812 -7.097656 9.375 -6.484375 C 9 -5.867188 8.414062 -5.425781 7.625 -5.15625 L 10.4375 0 L 8.6875 0 L 6.0625 -4.875 C 5.957031 -4.875 5.851562 -4.875 5.75 -4.875 L 3.015625 -4.875 L 3.015625 0 Z M 3.015625 -6.234375 L 5.703125 -6.234375 C 6.691406 -6.234375 7.398438 -6.445312 7.828125 -6.875 C 8.253906 -7.300781 8.46875 -7.890625 8.46875 -8.640625 C 8.46875 -9.390625 8.253906 -9.988281 7.828125 -10.4375 C 7.398438 -10.894531 6.679688 -11.125 5.671875 -11.125 L 3.015625 -11.125 Z M 3.015625 -6.234375" transform="translate(75.24 111.517)"/></g></g></g><g fill="#1E1E1E"><g><g><path d="M 12.03125 -6.234375 C 12.03125 -4.921875 11.789062 -3.785156 11.3125 -2.828125 C 10.84375 -1.867188 10.191406 -1.128906 9.359375 -0.609375 C 8.535156 -0.0859375 7.59375 0.171875 6.53125 0.171875 C 5.46875 0.171875 4.519531 -0.0859375 3.6875 -0.609375 C 2.863281 -1.128906 2.210938 -1.867188 1.734375 -2.828125 C 1.253906 -3.785156 1.015625 -4.921875 1.015625 -6.234375 C 1.015625 -7.546875 1.253906 -8.679688 1.734375 -9.640625 C 2.210938 -10.597656 2.863281 -11.335938 3.6875 -11.859375 C 4.519531 -12.378906 5.46875 -12.640625 6.53125 -12.640625 C 7.59375 -12.640625 8.535156 -12.378906 9.359375 -11.859375 C 10.191406 -11.335938 10.84375 -10.597656 11.3125 -9.640625 C 11.789062 -8.679688 12.03125 -7.546875 12.03125 -6.234375 Z M 10.5625 -6.234375 C 10.5625 -7.316406 10.378906 -8.226562 10.015625 -8.96875 C 9.660156 -9.707031 9.175781 -10.265625 8.5625 -10.640625 C 7.957031 -11.023438 7.28125 -11.21875 6.53125 -11.21875 C 5.769531 -11.21875 5.082031 -11.023438 4.46875 -10.640625 C 3.863281 -10.265625 3.378906 -9.707031 3.015625 -8.96875 C 2.660156 -8.226562 2.484375 -7.316406 2.484375 -6.234375 C 2.484375 -5.148438 2.660156 -4.238281 3.015625 -3.5 C 3.378906 -2.757812 3.863281 -2.195312 4.46875 -1.8125 C 5.082031 -1.425781 5.769531 -1.234375 6.53125 -1.234375 C 7.28125 -1.234375 7.957031 -1.425781 8.5625 -1.8125 C 9.175781 -2.195312 9.660156 -2.757812 10.015625 -3.5 C 10.378906 -4.238281 10.5625 -5.148438 10.5625 -6.234375 Z M 10.5625 -6.234375" transform="translate(86.19 111.517)"/></g></g></g><g fill="#1E1E1E"><g><g><path d="M 11.390625 -12.46875 L 11.390625 0 L 9.9375 0 L 3.140625 -9.78125 L 3.015625 -9.78125 L 3.015625 0 L 1.515625 0 L 1.515625 -12.46875 L 2.96875 -12.46875 L 9.78125 -2.65625 L 9.90625 -2.65625 L 9.90625 -12.46875 Z M 11.390625 -12.46875" transform="translate(99.232 111.517)"/></g></g></g><g fill="#1E1E1E"><g><g><path d="M 0.828125 -11.125 L 0.828125 -12.46875 L 10.171875 -12.46875 L 10.171875 -11.125 L 6.25 -11.125 L 6.25 0 L 4.75 0 L 4.75 -11.125 Z M 0.828125 -11.125" transform="translate(112.128 111.517)"/></g></g></g><g fill="#1E1E1E"><g><g><path d="M 1.515625 0 L 1.515625 -12.46875 L 9.03125 -12.46875 L 9.03125 -11.125 L 3.015625 -11.125 L 3.015625 -6.921875 L 8.640625 -6.921875 L 8.640625 -5.578125 L 3.015625 -5.578125 L 3.015625 -1.34375 L 9.125 -1.34375 L 9.125 0 Z M 1.515625 0" transform="translate(127.944 111.517)"/></g></g></g><g fill="#1E1E1E"><g><g><path d="M 11.390625 -12.46875 L 11.390625 0 L 9.9375 0 L 3.140625 -9.78125 L 3.015625 -9.78125 L 3.015625 0 L 1.515625 0 L 1.515625 -12.46875 L 2.96875 -12.46875 L 9.78125 -2.65625 L 9.90625 -2.65625 L 9.90625 -12.46875 Z M 11.390625 -12.46875" transform="translate(138.188 111.517)"/></g></g></g><g fill="#1E1E1E"><g><g><path d="M 5.359375 0 L 1.515625 0 L 1.515625 -12.46875 L 5.53125 -12.46875 C 6.738281 -12.46875 7.769531 -12.21875 8.625 -11.71875 C 9.488281 -11.21875 10.148438 -10.503906 10.609375 -9.578125 C 11.066406 -8.648438 11.296875 -7.539062 11.296875 -6.25 C 11.296875 -4.957031 11.0625 -3.84375 10.59375 -2.90625 C 10.132812 -1.96875 9.460938 -1.25 8.578125 -0.75 C 7.691406 -0.25 6.617188 0 5.359375 0 Z M 3.015625 -1.34375 L 5.265625 -1.34375 C 6.804688 -1.34375 7.953125 -1.78125 8.703125 -2.65625 C 9.460938 -3.53125 9.84375 -4.726562 9.84375 -6.25 C 9.84375 -7.757812 9.472656 -8.945312 8.734375 -9.8125 C 7.992188 -10.6875 6.890625 -11.125 5.421875 -11.125 L 3.015625 -11.125 Z M 3.015625 -1.34375" transform="translate(151.084 111.517)"/></g></g></g><g fill="#1E1E1E"><g><g><path d="M 3.78125 0 L 0.359375 -12.46875 L 1.90625 -12.46875 L 4.5 -2.3125 L 4.625 -2.3125 L 7.28125 -12.46875 L 8.984375 -12.46875 L 11.640625 -2.3125 L 11.765625 -2.3125 L 14.359375 -12.46875 L 15.90625 -12.46875 L 12.484375 0 L 10.9375 0 L 8.1875 -9.9375 L 8.078125 -9.9375 L 5.328125 0 Z M 3.78125 0" transform="translate(168.214 111.517)"/></g></g></g><g fill="#1E1E1E"><g><g><path d="M 1.515625 0 L 1.515625 -12.46875 L 9.03125 -12.46875 L 9.03125 -11.125 L 3.015625 -11.125 L 3.015625 -6.921875 L 8.640625 -6.921875 L 8.640625 -5.578125 L 3.015625 -5.578125 L 3.015625 -1.34375 L 9.125 -1.34375 L 9.125 0 Z M 1.515625 0" transform="translate(184.468 111.517)"/></g></g></g><g fill="#1E1E1E"><g><g><path d="M 1.515625 0 L 1.515625 -12.46875 L 5.875 -12.46875 C 6.738281 -12.46875 7.453125 -12.316406 8.015625 -12.015625 C 8.578125 -11.722656 8.992188 -11.320312 9.265625 -10.8125 C 9.546875 -10.3125 9.6875 -9.757812 9.6875 -9.15625 C 9.6875 -8.613281 9.59375 -8.164062 9.40625 -7.8125 C 9.21875 -7.46875 8.96875 -7.195312 8.65625 -7 C 8.351562 -6.800781 8.023438 -6.648438 7.671875 -6.546875 L 7.671875 -6.421875 C 8.046875 -6.398438 8.425781 -6.265625 8.8125 -6.015625 C 9.195312 -5.773438 9.519531 -5.425781 9.78125 -4.96875 C 10.039062 -4.519531 10.171875 -3.96875 10.171875 -3.3125 C 10.171875 -2.6875 10.03125 -2.125 9.75 -1.625 C 9.46875 -1.125 9.019531 -0.726562 8.40625 -0.4375 C 7.789062 -0.144531 6.992188 0 6.015625 0 Z M 3.015625 -1.34375 L 6.015625 -1.34375 C 7.003906 -1.34375 7.703125 -1.53125 8.109375 -1.90625 C 8.523438 -2.289062 8.734375 -2.757812 8.734375 -3.3125 C 8.734375 -3.726562 8.625 -4.113281 8.40625 -4.46875 C 8.195312 -4.832031 7.894531 -5.125 7.5 -5.34375 C 7.101562 -5.5625 6.632812 -5.671875 6.09375 -5.671875 L 3.015625 -5.671875 Z M 3.015625 -6.984375 L 5.8125 -6.984375 C 6.5 -6.984375 7.078125 -7.179688 7.546875 -7.578125 C 8.015625 -7.972656 8.25 -8.5 8.25 -9.15625 C 8.25 -9.695312 8.054688 -10.160156 7.671875 -10.546875 C 7.296875 -10.929688 6.695312 -11.125 5.875 -11.125 L 3.015625 -11.125 Z M 3.015625 -6.984375" transform="translate(194.712 111.517)"/></g></g></g><g fill="#1E1E1E"><g><g><path d="M 5.359375 0 L 1.515625 0 L 1.515625 -12.46875 L 5.53125 -12.46875 C 6.738281 -12.46875 7.769531 -12.21875 8.625 -11.71875 C 9.488281 -11.21875 10.148438 -10.503906 10.609375 -9.578125 C 11.066406 -8.648438 11.296875 -7.539062 11.296875 -6.25 C 11.296875 -4.957031 11.0625 -3.84375 10.59375 -2.90625 C 10.132812 -1.96875 9.460938 -1.25 8.578125 -0.75 C 7.691406 -0.25 6.617188 0 5.359375 0 Z M 3.015625 -1.34375 L 5.265625 -1.34375 C 6.804688 -1.34375 7.953125 -1.78125 8.703125 -2.65625 C 9.460938 -3.53125 9.84375 -4.726562 9.84375 -6.25 C 9.84375 -7.757812 9.472656 -8.945312 8.734375 -9.8125 C 7.992188 -10.6875 6.890625 -11.125 5.421875 -11.125 L 3.015625 -11.125 Z M 3.015625 -1.34375" transform="translate(210.674 111.517)"/></g></g></g><g fill="#1E1E1E"><g><g><path d="M 1.515625 0 L 1.515625 -12.46875 L 9.03125 -12.46875 L 9.03125 -11.125 L 3.015625 -11.125 L 3.015625 -6.921875 L 8.640625 -6.921875 L 8.640625 -5.578125 L 3.015625 -5.578125 L 3.015625 -1.34375 L 9.125 -1.34375 L 9.125 0 Z M 1.515625 0" transform="translate(222.986 111.517)"/></g></g></g><g fill="#1E1E1E"><g><g><path d="M 2.015625 -12.46875 L 5.71875 -1.96875 L 5.875 -1.96875 L 9.5625 -12.46875 L 11.15625 -12.46875 L 6.578125 0 L 5.015625 0 L 0.4375 -12.46875 Z M 2.015625 -12.46875" transform="translate(233.23 111.517)"/></g></g></g><g fill="#1E1E1E"><g><g><path d="M 1.515625 0 L 1.515625 -12.46875 L 9.03125 -12.46875 L 9.03125 -11.125 L 3.015625 -11.125 L 3.015625 -6.921875 L 8.640625 -6.921875 L 8.640625 -5.578125 L 3.015625 -5.578125 L 3.015625 -1.34375 L 9.125 -1.34375 L 9.125 0 Z M 1.515625 0" transform="translate(244.812 111.517)"/></g></g></g><g fill="#1E1E1E"><g><g><path d="M 1.515625 0 L 1.515625 -12.46875 L 3.015625 -12.46875 L 3.015625 -1.34375 L 8.8125 -1.34375 L 8.8125 0 Z M 1.515625 0" transform="translate(255.056 111.517)"/></g></g></g><g fill="#1E1E1E"><g><g><path d="M 12.03125 -6.234375 C 12.03125 -4.921875 11.789062 -3.785156 11.3125 -2.828125 C 10.84375 -1.867188 10.191406 -1.128906 9.359375 -0.609375 C 8.535156 -0.0859375 7.59375 0.171875 6.53125 0.171875 C 5.46875 0.171875 4.519531 -0.0859375 3.6875 -0.609375 C 2.863281 -1.128906 2.210938 -1.867188 1.734375 -2.828125 C 1.253906 -3.785156 1.015625 -4.921875 1.015625 -6.234375 C 1.015625 -7.546875 1.253906 -8.679688 1.734375 -9.640625 C 2.210938 -10.597656 2.863281 -11.335938 3.6875 -11.859375 C 4.519531 -12.378906 5.46875 -12.640625 6.53125 -12.640625 C 7.59375 -12.640625 8.535156 -12.378906 9.359375 -11.859375 C 10.191406 -11.335938 10.84375 -10.597656 11.3125 -9.640625 C 11.789062 -8.679688 12.03125 -7.546875 12.03125 -6.234375 Z M 10.5625 -6.234375 C 10.5625 -7.316406 10.378906 -8.226562 10.015625 -8.96875 C 9.660156 -9.707031 9.175781 -10.265625 8.5625 -10.640625 C 7.957031 -11.023438 7.28125 -11.21875 6.53125 -11.21875 C 5.769531 -11.21875 5.082031 -11.023438 4.46875 -10.640625 C 3.863281 -10.265625 3.378906 -9.707031 3.015625 -8.96875 C 2.660156 -8.226562 2.484375 -7.316406 2.484375 -6.234375 C 2.484375 -5.148438 2.660156 -4.238281 3.015625 -3.5 C 3.378906 -2.757812 3.863281 -2.195312 4.46875 -1.8125 C 5.082031 -1.425781 5.769531 -1.234375 6.53125 -1.234375 C 7.28125 -1.234375 7.957031 -1.425781 8.5625 -1.8125 C 9.175781 -2.195312 9.660156 -2.757812 10.015625 -3.5 C 10.378906 -4.238281 10.5625 -5.148438 10.5625 -6.234375 Z M 10.5625 -6.234375" transform="translate(264.692 111.517)"/></g></g></g><g fill="#1E1E1E"><g><g><path d="M 1.515625 0 L 1.515625 -12.46875 L 5.71875 -12.46875 C 6.695312 -12.46875 7.5 -12.289062 8.125 -11.9375 C 8.75 -11.582031 9.207031 -11.109375 9.5 -10.515625 C 9.800781 -9.921875 9.953125 -9.253906 9.953125 -8.515625 C 9.953125 -7.785156 9.800781 -7.117188 9.5 -6.515625 C 9.207031 -5.921875 8.75 -5.441406 8.125 -5.078125 C 7.507812 -4.722656 6.71875 -4.546875 5.75 -4.546875 L 3.015625 -4.546875 L 3.015625 0 Z M 3.015625 -5.890625 L 5.703125 -5.890625 C 6.703125 -5.890625 7.410156 -6.140625 7.828125 -6.640625 C 8.253906 -7.148438 8.46875 -7.773438 8.46875 -8.515625 C 8.46875 -9.265625 8.253906 -9.882812 7.828125 -10.375 C 7.398438 -10.875 6.679688 -11.125 5.671875 -11.125 L 3.015625 -11.125 Z M 3.015625 -5.890625" transform="translate(277.734 111.517)"/></g></g></g><g fill="#1E1E1E"><g><g><path d="M 1.515625 0 L 1.515625 -12.46875 L 9.03125 -12.46875 L 9.03125 -11.125 L 3.015625 -11.125 L 3.015625 -6.921875 L 8.640625 -6.921875 L 8.640625 -5.578125 L 3.015625 -5.578125 L 3.015625 -1.34375 L 9.125 -1.34375 L 9.125 0 Z M 1.515625 0" transform="translate(288.61 111.517)"/></g></g></g><g fill="#1E1E1E"><g><g><path d="M 1.515625 0 L 1.515625 -12.46875 L 5.71875 -12.46875 C 6.695312 -12.46875 7.5 -12.300781 8.125 -11.96875 C 8.75 -11.632812 9.207031 -11.179688 9.5 -10.609375 C 9.800781 -10.035156 9.953125 -9.378906 9.953125 -8.640625 C 9.953125 -7.816406 9.757812 -7.097656 9.375 -6.484375 C 9 -5.867188 8.414062 -5.425781 7.625 -5.15625 L 10.4375 0 L 8.6875 0 L 6.0625 -4.875 C 5.957031 -4.875 5.851562 -4.875 5.75 -4.875 L 3.015625 -4.875 L 3.015625 0 Z M 3.015625 -6.234375 L 5.703125 -6.234375 C 6.691406 -6.234375 7.398438 -6.445312 7.828125 -6.875 C 8.253906 -7.300781 8.46875 -7.890625 8.46875 -8.640625 C 8.46875 -9.390625 8.253906 -9.988281 7.828125 -10.4375 C 7.398438 -10.894531 6.679688 -11.125 5.671875 -11.125 L 3.015625 -11.125 Z M 3.015625 -6.234375" transform="translate(298.854 111.517)"/></g></g></g></svg>